<?xml version="1.0" encoding="UTF-8" standalone="no"?>
<!-- Created with Inkscape (http://www.inkscape.org/) -->

<svg
   xmlns:dc="http://purl.org/dc/elements/1.1/"
   xmlns:cc="http://creativecommons.org/ns#"
   xmlns:rdf="http://www.w3.org/1999/02/22-rdf-syntax-ns#"
   xmlns:svg="http://www.w3.org/2000/svg"
   xmlns="http://www.w3.org/2000/svg"
   xmlns:sodipodi="http://sodipodi.sourceforge.net/DTD/sodipodi-0.dtd"
   xmlns:inkscape="http://www.inkscape.org/namespaces/inkscape"
   version="1.1"
   id="svg1127"
   xml:space="preserve"
   width="512"
   height="800"
   viewBox="0 0 512 800"
   sodipodi:docname="1.svg"
   inkscape:version="0.92.3 (2405546, 2018-03-11)"><metadata
     id="metadata1133"><rdf:RDF><cc:Work
         rdf:about=""><dc:format>image/svg+xml</dc:format><dc:type
           rdf:resource="http://purl.org/dc/dcmitype/StillImage" /><dc:title></dc:title></cc:Work></rdf:RDF></metadata><defs
     id="defs1131"><clipPath
       clipPathUnits="userSpaceOnUse"
       id="clipPath1143"><path
         d="M 0,0 H 384 V 600.75 H 0 Z"
         id="path1141"
         inkscape:connector-curvature="0"
         style="clip-rule:evenodd" /></clipPath><clipPath
       clipPathUnits="userSpaceOnUse"
       id="clipPath1155"><path
         d="M 0,0 H 384 V 600 H 0 Z"
         id="path1153"
         inkscape:connector-curvature="0"
         style="clip-rule:evenodd" /></clipPath><clipPath
       clipPathUnits="userSpaceOnUse"
       id="clipPath1169"><path
         d="M 0,0 H 384 V 600 H 0 Z"
         id="path1167"
         inkscape:connector-curvature="0"
         style="clip-rule:evenodd" /></clipPath><clipPath
       clipPathUnits="userSpaceOnUse"
       id="clipPath1177"><path
         d="M 0,0 H 332 V 479 H 0 Z"
         id="path1175"
         inkscape:connector-curvature="0" /></clipPath><clipPath
       clipPathUnits="userSpaceOnUse"
       id="clipPath1181"><path
         d="M 0,0 H 331.5 V 478.5 H 0 Z"
         id="path1179"
         inkscape:connector-curvature="0"
         style="clip-rule:evenodd" /></clipPath><clipPath
       clipPathUnits="userSpaceOnUse"
       id="clipPath1201"><path
         d="M 140.25,522 H 156 v 15.75 h -15.75 z"
         id="path1199"
         inkscape:connector-curvature="0"
         style="clip-rule:evenodd" /></clipPath><clipPath
       clipPathUnits="userSpaceOnUse"
       id="clipPath1213"><path
         d="m 231.75,522 h 15.75 v 15.75 h -15.75 z"
         id="path1211"
         inkscape:connector-curvature="0"
         style="clip-rule:evenodd" /></clipPath><clipPath
       clipPathUnits="userSpaceOnUse"
       id="clipPath1225"><path
         d="m 204,522 h 15.75 v 15.75 H 204 Z"
         id="path1223"
         inkscape:connector-curvature="0"
         style="clip-rule:evenodd" /></clipPath><clipPath
       clipPathUnits="userSpaceOnUse"
       id="clipPath1237"><path
         d="m 171.75,522 h 15.75 v 15.75 h -15.75 z"
         id="path1235"
         inkscape:connector-curvature="0"
         style="clip-rule:evenodd" /></clipPath><clipPath
       clipPathUnits="userSpaceOnUse"
       id="clipPath1249"><path
         d="M 103.5,208.5 H 282.75 V 450 H 103.5 Z"
         id="path1247"
         inkscape:connector-curvature="0"
         style="clip-rule:evenodd" /></clipPath><clipPath
       clipPathUnits="userSpaceOnUse"
       id="clipPath1295"><path
         d="M 0,0 H 384 V 600 H 0 Z"
         id="path1293"
         inkscape:connector-curvature="0"
         style="clip-rule:evenodd" /></clipPath></defs><sodipodi:namedview
     pagecolor="#ffffff"
     bordercolor="#666666"
     borderopacity="1"
     objecttolerance="10"
     gridtolerance="10"
     guidetolerance="10"
     inkscape:pageopacity="0"
     inkscape:pageshadow="2"
     inkscape:window-width="716"
     inkscape:window-height="480"
     id="namedview1129"
     showgrid="false"
     inkscape:zoom="0.295"
     inkscape:cx="256"
     inkscape:cy="400"
     inkscape:window-x="0"
     inkscape:window-y="0"
     inkscape:window-maximized="0"
     inkscape:current-layer="g1135" /><g
     id="g1135"
     inkscape:groupmode="layer"
     inkscape:label="PDF Onboarding"
     transform="matrix(1.3333333,0,0,1.3333333,0,1.67e-5)"><g
       id="g1137"><g
         id="g1139"
         clip-path="url(#clipPath1143)"><g
           id="g1145"
           transform="scale(0.75)"><path
             d="M 0,0 H 512 V 3203 H 0 Z"
             style="fill:#ffffff;fill-opacity:1;fill-rule:nonzero;stroke:none"
             id="path1147"
             inkscape:connector-curvature="0" /></g></g></g><g
       id="g1149"><g
         id="g1151"
         clip-path="url(#clipPath1155)"><g
           id="g1157"
           transform="scale(0.75)"><path
             d="M 0,0 H 512 V 800 H 0 Z"
             style="fill:#ffffff;fill-opacity:1;fill-rule:nonzero;stroke:none"
             id="path1159"
             inkscape:connector-curvature="0" /><path
             d="M 0,0 H 512 V 800 H 0 Z"
             style="fill:#bef4e0;fill-opacity:1;fill-rule:nonzero;stroke:none"
             id="path1161"
             inkscape:connector-curvature="0" /></g></g></g><g
       id="g1163"><g
         id="g1165"
         clip-path="url(#clipPath1169)"><g
           id="g1171"
           transform="translate(27,27)"><g
             id="g1173" /><g
             id="g1193"><g
               clip-path="url(#clipPath1177)"
               id="g1191"
               style="opacity:0.52941176"><g
                 id="g1189"><g
                   clip-path="url(#clipPath1181)"
                   id="g1187"><g
                     transform="matrix(0.66298395,0,0,0.95699996,0.00399971,0)"
                     id="g1185"><path
                       d="M 0,0 H 500 V 500 H 0 Z"
                       style="fill:#ffffff;fill-opacity:1;fill-rule:nonzero;stroke:none"
                       id="path1183"
                       inkscape:connector-curvature="0" /></g></g></g></g></g></g></g></g><g
       id="g1195"><g
         id="g1197"
         clip-path="url(#clipPath1201)"><g
           id="g1203"
           transform="matrix(0.03147669,0,0,0.03150012,140.25583,522)"><path
             d="M 500,250.002 C 500,388.06702 388.06799,499.99799 250,499.99799 111.929,499.99799 0,388.06699 0,250.00198 0,111.93 111.929,0 250,0 388.07101,0 500,111.93 500,250.002 Z"
             style="fill:#197e64;fill-opacity:1;fill-rule:nonzero;stroke:none"
             id="path1205"
             inkscape:connector-curvature="0" /></g></g></g><g
       id="g1207"><g
         id="g1209"
         clip-path="url(#clipPath1213)"><g
           id="g1215"
           transform="matrix(0.03147669,0,0,0.03150012,231.75583,522)"><path
             d="M 500,250.002 C 500,388.06702 388.06799,499.99799 250,499.99799 111.929,499.99799 0,388.06699 0,250.00198 0,111.93 111.929,0 250,0 388.07101,0 500,111.93 500,250.002 Z"
             style="fill:#ffffff;fill-opacity:1;fill-rule:nonzero;stroke:none"
             id="path1217"
             inkscape:connector-curvature="0" /></g></g></g><g
       id="g1219"><g
         id="g1221"
         clip-path="url(#clipPath1225)"><g
           id="g1227"
           transform="matrix(0.03147669,0,0,0.03150012,204.00583,522)"><path
             d="M 500,250.002 C 500,388.06702 388.06799,499.99799 250,499.99799 111.929,499.99799 0,388.06699 0,250.00198 0,111.93 111.929,0 250,0 388.07101,0 500,111.93 500,250.002 Z"
             style="fill:#ffffff;fill-opacity:1;fill-rule:nonzero;stroke:none"
             id="path1229"
             inkscape:connector-curvature="0" /></g></g></g><g
       id="g1231"><g
         id="g1233"
         clip-path="url(#clipPath1237)"><g
           id="g1239"
           transform="matrix(0.03147669,0,0,0.03150012,171.75583,522)"><path
             d="M 500,250.002 C 500,388.06702 388.06799,499.99799 250,499.99799 111.929,499.99799 0,388.06699 0,250.00198 0,111.93 111.929,0 250,0 388.07101,0 500,111.93 500,250.002 Z"
             style="fill:#ffffff;fill-opacity:1;fill-rule:nonzero;stroke:none"
             id="path1241"
             inkscape:connector-curvature="0" /></g></g></g><g
       id="g1243"><g
         id="g1245"
         clip-path="url(#clipPath1249)"><g
           id="g1251"
           transform="matrix(0.48857284,0,0,0.48883376,103.50047,208.5)"><path
             d="m 68.973,345.67899 c -0.621003,0.113 -1.240998,0.22699 -1.862,0.33999 -0.5,-2.74701 -1.57,-5.53 -1.396004,-8.23401 0.627999,-9.81299 2.007004,-19.586 2.496003,-29.40301 1.397003,-28.095 9.701995,-53.974 27.559997,-75.633 37.278994,-45.21699 90.975004,-54.841 143.300994,-19.166 3.567,2.433 7.037,5.718 9.187,9.403 7.55099,12.953 15.66301,25.769 21.425,39.53101 9.26099,22.125 11.93201,45.828 11.52399,69.69201 -0.26401,15.56101 -3.64099,30.349 -16.146,41.38901 -1.479,1.301 -2.89401,2.982 -3.59399,4.78 -0.70301,1.80301 -0.47602,3.97101 -0.655,5.982 2.069,-0.081 4.29999,0.28799 6.16501,-0.374 1.79098,-0.638 3.337,-2.20099 4.76199,-3.59399 8.63001,-8.42099 13.67401,-18.74701 15.81299,-30.52301 3.36899,-18.586 2.62201,-37.137 0.20801,-55.81299 -5.392,-41.726 -25.124,-76.22 -57.22701,-101.79901 -31.755,-25.30001 -68.933,-30.431 -106.588,-12.709 -13.953,6.56599 -25.962994,17.291 -38.783993,26.229 -13.904998,9.696 -26.357002,20.927 -35.874,35.10601 -2.116001,3.154 -4.436001,6.341 -5.722,9.85699 -8.125,22.22 -15.652001,44.659 -24.048001,66.77301 -5.442999,14.33701 -3.409,27.38901 3.494999,40.52701 5.031,9.582 9.682999,19.41299 13.762001,29.436 9.779999,24.02899 21.278,46.89701 41.273995,64.26801 11.374,9.88 22.972999,19.513 34.736999,28.927 3.711,2.96701 8.069,5.465 12.535,7.01901 2.68,0.93399 6.13901,-0.37701 9.247,-0.682 -1.968,-2.21201 -3.53501,-5.11701 -5.968,-6.52701 -33.114003,-19.18701 -60.026005,-44.23401 -76.284001,-79.55301 -7.887001,-17.13599 -15.581001,-34.362 -23.820999,-51.323 -4.555,-9.37701 -4.586001,-18.40201 -0.934,-27.92999 3.157999,-8.23801 5.835001,-16.659 8.701998,-25.01099 3.834999,-11.16598 7.130001,-22.54999 11.645,-33.43301 3.185001,-7.68201 8.008999,-14.68201 12.101002,-21.989 0.582001,0.308 1.162998,0.612 1.744999,0.916 -0.438,1.465 -0.634999,3.058 -1.349999,4.37 -8.350002,15.333 -13.031002,31.86499 -15.952999,48.95001 -3.047001,17.82 -6.339001,35.60699 -3.339001,53.85598 4.404999,26.806 18.062001,49.61899 31.097004,72.67502 7.035004,12.45002 16.854996,22.42099 28.979996,30.112 11.024,6.99301 21.773,14.43302 32.98199,21.10599 4.91201,2.923 10.49401,5.242 16.073,6.43301 18.455,3.948 37.03,7.344 55.59,10.78 11.26399,2.08499 22.451,1.56101 33.246,-2.50201 1.747,-0.655 2.927,-2.82001 4.369,-4.285 -1.878,-1.18799 -3.647,-2.66001 -5.681,-3.447 -1.147,-0.44699 -2.729,0.32102 -4.121,0.392 -7.78799,0.37299 -15.75799,1.93 -23.32499,0.80301 -19.84,-2.96799 -39.557,-6.86099 -59.208,-10.949 -5.55499,-1.15702 -11.078,-3.638 -15.96699,-6.582 -10.31301,-6.21302 -20.34101,-12.931 -30.203,-19.84299 -5.231008,-3.663 -10.770009,-7.469 -14.636007,-12.41001 -22.679,-28.979 -39.845001,-60.56799 -40.139,-98.509 -0.256,-32.96399 8.520001,-63.953 21.765999,-94.12201 6.988999,-15.919 17.253998,-27.692 31.596998,-36.64099 3.062,-1.912 5.888,-4.20199 8.852,-6.27499 28.45,-19.912 58.93,-24.08301 91.479,-11.648 2.78799,1.066 5.322,2.806 7.97099,4.235 -0.25301,0.567 -0.509,1.135 -0.76199,1.707 -2.85401,-0.656 -5.67101,-1.524 -8.55701,-1.923 -11.868,-1.645 -23.912,-5.22 -35.608,-4.332 -39.61701,3.009 -67.669002,25.02701 -87.918002,57.94 -12.610001,20.495 -16.697998,43.50101 -19.517998,67.05802 -2.230999,18.63 -2.839001,36.84298 3.276001,54.78399 20.747002,60.85401 60.730999,99.17999 126.093999,108.31201 25.82401,3.60801 51.274,4.762 75.887,-5.67801 4.12799,-1.747 8.10299,-4.337 11.46899,-7.30398 10.362,-9.129 20.51599,-18.50201 30.534,-28.00699 17.194,-16.319 31.77701,-34.466 34.43701,-59.04098 1.78699,-16.55802 2.05899,-33.27399 3.00299,-49.91999 0.14099,-2.41 0.26099,-4.82 0.38901,-7.23001 0.608,-0.025 1.216,-0.052 1.824,-0.077 0.499,3.83899 1.52399,7.69198 1.40601,11.514 -0.43201,14.021 -1.34799,28.03202 -1.79801,42.055 -0.062,1.96301 1.469,3.98098 2.26401,5.971 1.89099,-1.50601 4.78699,-2.656 5.469,-4.58999 1.51699,-4.30499 2.117,-8.97501 2.759,-13.54199 2.45001,-17.46601 -0.97101,-34.57199 -4.56101,-51.39301 -9.72601,-45.63 -28.97198,-87.535 -52.49499,-127.539 -2.95499,-5.02901 -7.703,-9.32201 -12.396,-12.959 -19.83499,-15.38899 -41.55,-27.312 -65.80301,-34.33 -12.73199,-3.681 -25.44299,-7.434 -38.07699,-11.427 -54.795,-17.31501 -103.644999,-2.998 -149.366,27.95999 -2.292999,1.55299 -4.729,3.462 -5.982,5.804 -0.989,1.85 -0.261999,4.619 -0.297001,6.98199 2.136,-0.35899 4.626001,-0.13 6.344999,-1.173 9.036999,-5.487 17.443001,-12.185 26.877003,-16.80901 20.579002,-10.08999 41.759999,-19.295 64.950999,-21.015 40.619,-3.007 77.33699,11.196 113.43599,27.41201 1.975,0.889 3.466,2.85699 5.17599,4.32299 -0.31799,0.555 -0.641,1.11 -0.959,1.665 -3.378,-1.33501 -6.74,-2.70301 -10.132,-4 -17.788,-6.806 -35.24899,-14.71401 -53.45101,-20.12801 -28.084,-8.35499 -57.16799,-10.88099 -84.415996,1.771 -25.778,11.97099 -50.154999,26.96899 -75.009003,40.884 -1.462999,0.821 -1.674999,3.87601 -2.468,5.89101 2.118999,0.645 4.58,2.3 6.288999,1.723 3.727,-1.25399 7.187001,-3.46699 10.553002,-5.608 13.543998,-8.619 26.662002,-17.97999 40.623001,-25.85 10.055,-5.66901 21.136001,-9.562 31.902997,-13.883 2.185,-0.877 5.02101,-0.12601 7.557,-0.12601 0.06,0.53701 0.121,1.07601 0.181,1.614 -2.205,0.817 -4.407,1.64501 -6.61699,2.45101 -8.667005,3.16299 -17.729001,5.533 -25.934003,9.623 -25.192002,12.55799 -46.518002,30.736 -67.883003,48.70799 -2.288001,1.927 -2.674,6.11 -3.943,9.246 3.029,-0.744 6.716,-0.641 8.975001,-2.388 9.525,-7.367 18.683003,-15.216 27.869999,-23.013 16.361,-13.88499 33.872002,-25.77899 54.611996,-32.233 24.55301,-7.63901 49.57201,-13.793 75.264,-8.65601 26.25799,5.25101 51.29499,14.676 74.669,28.09101 17.638,10.123 31.01901,23.821 38.43701,43.18699 2.556,6.67101 7.20099,12.513 10.413,18.97501 4.95999,9.989 11.09201,19.75799 13.935,30.37001 8.29998,30.94199 9.293,62.707 7.22,94.55798 -0.366,5.57801 -1.224,11.22299 -2.69602,16.607 -11.66598,42.68899 -64.194,75.29699 -109.78,67.70001 -15.61099,-2.604 -30.92799,-6.952 -46.403,-10.414 -3.74499,-0.836 -9.18699,-3.43302 -10.621,1.33301 -1.526,5.07699 4.36101,6.458 8.289,7.466 11.081,2.84201 22.24201,5.384 33.409,7.879 28.367,6.337 55.521,3.03299 81.261,-10.64099 35.534,-18.87201 56.13101,-47.36701 56.021,-88.64801 -0.04,-16.06601 -0.67401,-32.16199 -1.831,-48.18799 -2.18798,-30.21601 -8.14599,-59.344 -27.169,-84.21601 -2.05899,-2.692 -3.905,-5.696 -5.15,-8.835 -7.54199,-19 -21.414,-32.176 -38.406,-42.64301 -1.956,-1.203 -3.44701,-3.16299 -5.15,-4.77099 0.385,-0.52401 0.773,-1.04401 1.161,-1.566 3.48,1.709 7.037,3.278 10.429,5.14999 15.18301,8.374 28.64801,18.088 35.22,35.463 4.806,12.711 11.711,24.616 17.37,37.02201 4.30801,9.44299 9.93499,18.766 11.84298,28.744 6.25602,32.68201 7.875,65.616 3.76902,98.94101 -5.13901,41.686 -28.11301,68.26401 -66.538,82.129 -35.304,12.73901 -70.688,9.86801 -105.795,-1.89801 -8.302,-2.779 -15.029,-7.41599 -20.57499,-14.06202 -8.11301,-9.71798 -17.039,-18.85998 -24.26001,-29.19799 -7.646,-10.94101 -15.106,-22.414 -20.182994,-34.67301 -13.116997,-31.67499 -9.127999,-64.21701 -2.097,-96.587 0.420997,-1.93799 1.152,-3.901 2.160003,-5.608 9.796001,-16.568 21.608001,-31.443 37.411991,-42.70701 11.74201,-8.36599 24.726,-13.38099 39.431,-12.38099 6.40801,0.436 12.79201,1.323 19.168,2.14 26.05901,3.33999 45.297,16.296 56.60401,40.345 1.623,3.446 3.22999,6.89999 4.82,10.362 8.08501,17.604 12.85399,35.875 11.062,55.45401 -2,21.82001 -18.47299,41.45401 -39.366,45.707 -4.692,0.95599 -10.322,-0.24201 -14.95199,-1.97101 -8.052,-3.008 -15.487,-7.638 -23.49401,-10.772 -6.903,-2.70002 -12.028,-7.026 -14.06799,-13.861 -4.643,-15.54299 -9.53101,-31.10998 -12.604,-47 -2.764,-14.289 -0.029,-28.17999 11.06199,-38.96699 7.12601,-6.931 15.73,-9.282 25.44001,-6.451 9.664,2.82 16.75999,9.561 22.68899,17.014 12.369,15.54999 16.74001,33.513 10.586,52.62 -4.699,14.582 -17.42101,17.255 -28.963,7.22699 -7.348,-6.39301 -11.836,-14.521 -14.539,-23.831 -1.09199,-3.75601 -3.099,-7.246 -4.692,-10.854 -0.62601,0.18301 -1.25301,0.366 -1.881,0.55301 -0.326,1.26401 -0.934,2.526 -0.938,3.79098 -0.042,15.04801 4.716,28.06601 16.705,37.736 17.619,14.20901 36.575,8.418 42.18001,-13.46201 6.10001,-23.80899 -0.341,-45.436 -14.85001,-64.52701 -9.64599,-12.696 -24.326,-17.253 -39.25,-20.319 -14.47,-2.97799 -27.655,-0.037 -36.31399,12.674 -4.857,7.136 -8.39,15.47999 -11.019,23.75899 -5.33,16.78299 -7.802,34.139 -4.784,51.71701 3.443,20.056 18.993,33.64599 28.168,50.66299 0.68401,1.271 3.724,1.26801 5.668,1.857 0.504,-2.172 2.021,-4.73902 1.35201,-6.46201 -5.267,-13.574 -6.875,-28.604 -16.11701,-40.62601 -2.436,-3.168 -4.293,-6.78399 -6.39199,-10.20898 -4.54601,-7.42099 -5.637,-15.526 -3.73,-23.82001 2.06399,-8.975 4.368,-17.95599 7.43201,-26.62601 3.408,-9.64799 7.753,-19.011 18.061,-23.49099 2.047,-0.89 4.328,-1.24601 6.5,-1.846 -3.401,4.07401 -7.328,6.487 -10.77299,9.465 -10.41201,8.996 -11.14301,21.45 -10.76401,33.76601 0.959,31.224 12.196,59.642 25.905,87.044 6.244,12.48001 16.625,16.47699 30.001,12.70002 18.484,-5.21601 36.04001,-12.594 49.32999,-27.42099 1.76999,-1.97199 3.82001,-3.689 5.73901,-5.52399 0.474,0.336 0.94602,0.67001 1.418,1.00299 -0.66198,1.729 -0.915,3.81 -2.05398,5.125 -7.857,9.069 -14.737,19.54199 -24.177,26.53799 -11.61901,8.60801 -25.806,14.03299 -40.847,10.14301 -8.35401,-2.16 -15.987,-7.047 -24.097,-10.33301 -1.84301,-0.746 -4.31501,0.06 -6.49601,0.15 0.54201,2.12899 0.368,5.14999 1.73801,6.246 11.498,9.17898 23.745,16.30801 39.496,14.59298 15.78,-1.71798 28.78,-8.772 41.35901,-18.02899 12.94501,-9.52701 20.83099,-21.73501 23.435,-37.20099 5.767,-34.19 1.587,-66.98999 -14.53,-98.07 -11.93401,-23.015 -28.65201,-39.45101 -55.604,-42.83901 -2.974,-0.37399 -5.879,-1.29699 -8.827,-1.91299 -17.41299,-3.629 -35.076,-5.461 -51.211,3.491 -11.274,6.25999 -22.246,13.817 -31.559,22.68099 -12.787998,12.168 -23.334995,26.633 -26.646,44.609 -2.249001,12.216 -3.626,24.685 -4.230003,37.09799 -2.695,55.371 20.524002,98.785 62.935993,132.74899 5.608,4.48999 12.846,7.60401 19.83,9.56699 11.76,3.30701 23.96201,5.004 35.89901,7.70599 12.337,2.79502 24.681,3.37101 37.095,1.04801 8.88,-1.659 17.68199,-3.70301 26.528,-5.538 2.79098,-0.57501 5.604,-1.01901 8.406,-1.52398 0.23801,0.56799 0.473,1.13699 0.71,1.70401 -1.98099,1.42898 -3.762,3.45401 -5.974,4.17999 -8.16501,2.67001 -16.38901,6.54501 -24.739,6.96301 -15.76601,0.78299 -31.638,-0.95599 -47.46201,-0.836 -18.87599,0.14402 -35.35899,-6.501 -50.938,-16.212 -32.01801,-19.952 -53.928002,-48.224 -67.579003,-83.08802 -1.040001,-2.65499 -1.124001,-6.68798 0.183998,-9.07199 4.481003,-8.17001 3.033997,-16.32299 1.242996,-24.591 -0.334999,-1.55301 -1.555,-2.91199 -2.679001,-4.91901 -6.660987,6.07499 -1.458992,13.35999 -3.73899,19.23597 z m 145.622,11.38302 c 3.022,-0.28201 6.22,-0.10901 9.144,-0.92999 18.3,-5.10599 27.89599,-18.25299 31.41,-36.03699 4.66301,-23.62201 -1.682,-45.979 -10.352,-67.513 -10.17301,-25.253 -32.59,-34.70399 -56.90801,-40.44 -21.55501,-5.084 -40.352,1.11 -57.022,15.367 -11.843,10.125 -20.648,22.19001 -26.8,36.469 -10.796002,25.05899 -13.561001,51.216 -6.475002,77.18298 6.256992,22.931 18.387002,43.58701 33.403002,62.29001 9.69001,12.065 22.20801,19.45801 37.08201,23.268 15.197,3.891 30.40899,4.168 46.01699,2.47699 40.23,-4.362 67.81601,-24.66 82.44599,-62.57199 5.30499,-13.74701 7.30899,-27.89001 6.92801,-42.49099 -0.94199,-35.89301 -5.42499,-70.739 -26.42499,-101.55701 -15.487,-22.72501 -34.704,-41.38699 -59.00101,-53.91 -33.783,-17.411 -68.61499,-15.76801 -103.271,-1.99001 -16.406999,6.522 -32.859003,13.028 -48.819002,20.54401 -7.667,3.608 -15.208999,8.58999 -21.121002,14.604 -18.370001,18.696 -31.613001,40.963 -41.3330002,65.22099 -2.194,5.47602 -2.76200004,11.681 -3.483,17.62299 -0.204,1.673 1.7079999,3.604 2.648,5.41598 1.4730001,-1.553 3.6610003,-2.863 4.2839999,-4.70199 2.1810003,-6.44 3.2049993,-13.31601 5.7860003,-19.56799 7.959,-19.271 19.159001,-36.663 32.71,-52.465 8.394001,-9.788 19.002998,-16.43601 31.094001,-21.069 12.914002,-4.953 25.634003,-10.43201 38.289003,-16.01801 28.216,-12.455 56.95599,-15.15201 86.179,-4.28999 44.66701,16.601 72.239,49.64101 86.12898,94.037 9.487,30.314 11.82401,61.487 1.84299,92.56699 -9.21701,28.707 -25.538,50.686 -56.487,57.75101 -11.257,2.57101 -22.97501,3.40298 -34.53799,4.27099 -12.51,0.935 -23.036,-4.22 -32.34101,-12.33401 -16.205,-14.13501 -28.48599,-31.07199 -36.158,-51.13501 -1.958,-5.121 -2.542,-10.85999 -3.13201,-16.38199 -0.579,-5.42801 0.48401,-11.12399 -0.646,-16.388 -4.503,-20.97101 -5.28,-41.344 6.286,-60.61899 2.134,-3.55701 3.92101,-7.46201 5.026,-11.439 0.586,-2.113 -0.632,-4.73199 -1.037,-7.125 -2.212,0.83901 -5.42799,1.03301 -6.45599,2.63401 -3.412,5.311 -6.519,10.93399 -8.874,16.79199 -7.623,18.948 -10.793,39.021 -9.031,59.08801 2.782,31.69901 16.707,58.76599 39.461,81.13098 3.048,2.99799 6.38299,5.69699 9.584,8.53202 -0.469,0.56698 -0.93601,1.13199 -1.405,1.695 -1.96401,-1.17199 -3.991,-2.24798 -5.877,-3.531 -10.65601,-7.25299 -19.13901,-16.61099 -25.458,-27.758 -13.885,-24.49798 -27.086,-48.76599 -24.921,-78.94101 2.181,-30.37701 15.524,-54.136 37.601,-73.315 20.56801,-17.87199 61.864,-15.20801 80.60399,4.909 21.322,22.89001 29.95199,50.388 25.31199,81.51599 -0.50199,3.367 -3.513,7.25699 -6.477,9.169 -5.67799,3.659 -12.3,5.81299 -18.28101,9.051 -9.682,5.242 -18.42199,3.89801 -26.905,-2.64401 -18.57,-14.319 -26.06199,-50.038 -14.66299,-70.43 3.97501,-7.113 8.02499,-9.076 16.14301,-8.43299 1.875,0.15499 3.847,-0.944 5.77999,-1.472 -1.07699,-2.12101 -1.61099,-4.971 -3.322,-6.23801 -5.879,-4.35899 -12.594,-3.42101 -18.509,2.04401 -8.041,7.42599 -12.47901,16.93798 -13.55401,27.52301 -2.265,22.31201 2.85001,42.737 18.245,59.73999 9.638,10.64599 21.29401,13.923 34.883,8.246 5,-2.08899 9.884,-4.45099 14.865,-6.586 1.24201,-0.53201 2.655,-0.66699 3.99201,-0.98499 0.22,0.47901 0.44299,0.95902 0.667,1.43799 -1.641,1.26099 -3.125,2.84299 -4.948,3.719 -4.876,2.34399 -9.901,4.36599 -14.847,6.561 -3.22393,1.42902 -6.27793,3.02503 -4.96394,8.43103 z M 307.44601,98.401001 C 306.875,98.966003 306.302,99.528 305.73102,100.092 303.98001,98.639 302.12003,97.299004 300.49701,95.717003 289.82001,85.298004 278.698,75.479004 265.09802,68.929001 244.30302,58.916 223.85303,48.084999 202.61502,39.132 183.64001,31.136 164.01402,24.446999 144.21802,18.792999 137.24902,16.802 128.87501,19.33 121.23602,20.438 c -1.421,0.207 -2.39901,3.485 -3.58101,5.346 1.879,0.641001 3.824,1.986 5.628,1.815001 13.856,-1.306 27.641,-0.150999 40.28001,5.251001 34.487,14.740002 68.604,30.343998 102.82001,45.707005 2.37799,1.066002 4.37799,2.967003 7.58599,5.202003 -2.044,0 -2.678,0.161003 -3.17898,-0.028 -3.004,-1.125999 -5.99701,-2.305999 -8.96701,-3.519996 -31.56799,-12.901001 -62.976,-26.214001 -94.75701,-38.555001 -16.49299,-6.404998 -33.744,-10.679 -51.77899,-9.354 -2.69101,0.198002 -5.568,0.953 -7.861,2.3 -1.346,0.791999 -1.707,3.259998 -2.51101,4.974998 1.711,0.657002 3.541,2.095001 5.11,1.852001 15.31501,-2.381 30.31701,-0.312999 44.461,5.07 39.93601,15.198002 79.599,31.118999 119.318,46.868 28.095,11.138998 51.63699,27.562008 64.729,56.133998 0.80899,1.76899 3.802,2.539 5.77899,3.772 0.54999,-2.47 1.38501,-4.925 1.53501,-7.421 0.073,-1.21401 -1.03299,-2.56701 -1.77701,-3.75001 -8.121,-12.914 -16.047,-25.95799 -24.50901,-38.64599 -4.89001,-7.336999 -10.45498,-14.252999 -16.06201,-21.073999 -11.52301,-14.027 -25.461,-25.075 -42.14599,-32.383998 -29.59,-12.962002 -59.17301,-25.949 -88.94101,-38.484002 -6.562,-2.7619997 -13.85401,-3.9159995 -20.914,-5.2709995 -1.54801,-0.297 -3.53701,1.7069998 -5.32201,2.6499996 1.112,1.7139999 1.85499,4.0229999 3.425,4.9959999 2.138,1.321 4.909,1.614001 7.403,2.357001 6.328,1.885999 12.85601,3.278 18.942,5.757999 19.88401,8.102999 39.687,16.427 59.375,25.000002 20.10401,8.753998 39.94501,18.156998 56.18299,33.344002 5.83502,5.457985 10.66003,12.003982 15.94204,18.052986 z M 202.88901,109.271 c -0.14301,0.377 -0.282,0.752 -0.429,1.129 -3.16901,-0.915 -6.314,-1.932 -9.51,-2.729 -14.56599,-3.632 -28.96499,-8.728999 -43.75599,-10.468997 -29.49701,-3.471 -58.537007,0.239998 -86.411008,11.014997 -9.516998,3.67701 -17.993999,9.123 -23.502998,17.987 -1.326,2.13301 -0.898998,5.357 -1.278999,8.081 2.556999,-0.839 5.885002,-0.93499 7.541,-2.645 7.717999,-7.983 16.687,-13.526 27.232002,-17.049 35.503993,-11.859 71.112003,-13.509 107.207003,-2.65899 15.93699,4.789 32.51199,7.637 48.13099,13.22699 22.83901,8.17401 42.73601,22.07901 62.23699,36.249 17.86099,12.978 28.28601,31.387 35.539,51.778 3.43301,9.63801 6.30399,19.473 9.871,29.05901 8.52399,22.92299 18.836,45.29301 20.00501,70.35201 0.11599,2.47299 2.73901,4.83099 4.19699,7.238 0.96701,-0.25699 1.935,-0.51001 2.89999,-0.76599 0.396,-4.396 1.72602,-8.949 1.00101,-13.14999 -1.79901,-10.45002 -3.69901,-21.01902 -7.06299,-31.03699 -7.475,-22.25301 -16.24899,-44.069 -23.79401,-66.3 -8.90798,-26.24001 -25.048,-46.357 -48.484,-60.922 -15.50501,-9.634 -30.713,-19.742 -46.282,-29.274 -8.842,-5.414 -18.021,-10.306 -27.26399,-15.02201 C 206.173,100.91305 200.811,99.585045 195.88,97.361046 c -27.17799,-12.264 -55.432,-17.822998 -85.11499,-13.013001 -16.394,2.655999 -32.682002,6.061997 -48.899001,9.661003 -4.64,1.029 -12.103001,3.498002 -9.975003,8.811992 2.182999,5.45401 8.665001,1.181 13.197999,-0.513 4.867996,-1.817 9.645004,-4.112995 14.677001,-5.209995 40.733004,-8.880996 80.602994,-6.687004 119.216004,10.002995 1.36099,0.58696 2.60899,1.44096 3.907,2.16996 z M 311.677,323.39899 c -0.35299,0.066 -0.70001,0.13199 -1.052,0.19799 -0.439,7.21601 -0.832,14.43601 -1.32599,21.64802 -2.32199,33.634 -23.72198,54.93099 -48.15701,74.212 -1.53501,1.20902 -3.513,2.056 -5.418,2.564 -11.776,3.12899 -23.61501,6.03601 -35.373,9.22799 -1.898,0.513 -3.50701,2.07599 -5.246,3.15 1.908,1.05899 3.88299,3.12399 5.718,3.00399 16.692,-1.08099 33.686,-2.345 47.77301,-12.393 16.49701,-11.76999 29.36899,-27.27799 40.60699,-44.08402 1.19001,-1.77999 1.90799,-3.979 2.45801,-6.08499 13.85101,-53.00699 8.952,-104.02499 -18.16101,-151.904 -20.03299,-35.377 -47.582,-62.413 -88.521,-73.06301 -43.63099,-11.34799 -84.88999,-4.789 -125.365993,13.815 -31.033001,14.262 -51.729,39.42 -72.7220005,64.559 -2.0150004,2.414 -4.8220001,6.242 -0.7360001,8.73699 1.414,0.861 5.7840006,-1.33 7.6009996,-3.25599 6.187001,-6.568 11.868,-13.61901 17.690001,-20.528 36.540001,-43.353 83.995003,-62.43201 139.695993,-59.87 52.108,2.39701 95.92401,28.103 121.29901,88.724 4.39801,10.517 9.574,20.97901 11.992,31.996 3.551,16.20304 4.93598,32.87604 7.24399,49.34803 z M 149.819,68.333 c -0.05,0.82 -0.099,1.642998 -0.148,2.464997 -1.167,0.188003 -2.33,0.511001 -3.5,0.541999 -3.011,0.081 -6.03999,0.236 -9.033,0.003 -22.696,-1.758004 -44.923004,0.401001 -66.530998,7.805 C 68.557999,79.848991 66.32,80.608994 64.790001,82.017998 63.687,83.034996 62.909,85.389999 63.327,86.731995 c 0.291,0.941002 2.917003,1.795997 4.366001,1.616996 3.567001,-0.444999 7.095001,-1.378997 10.574997,-2.345001 C 125.33,72.94899 170.785,77.009987 214.96701,97.958992 c 24.74699,11.731998 48.392,25.225998 71.04001,40.567998 24.164,16.366 43.08398,37.381 55.44699,63.79399 8.12399,17.348 12.98099,35.792 14.55301,55.02201 0.31799,3.90399 0.96301,8.91501 6.30398,8.36999 1.26801,-0.12799 3.26401,-6.18399 2.69199,-9.07001 -2.90799,-14.73199 -5.362,-29.725 -10.16901,-43.882 -11.83898,-34.894 -34.725,-61.659 -64.923,-82.218 -32.992,-22.459 -67.81,-41.432 -105.978,-53.794999 -4.127,-1.335 -7.69999,-4.278 -11.708,-6.079003 -7.06501,-3.171997 -14.03501,-7.562 -21.467,-8.710998 -14.83299,-2.289002 -29.936,-3.157002 -44.961,-3.754002 -7.334997,-0.290001 -14.852995,0.824001 -22.094999,2.269001 -6.587998,1.313 -8.833001,5.417 -7.199997,12.317001 11.389999,-5.927002 23.514996,-7.762001 36.061996,-6.917999 12.41802,0.839028 24.83601,1.643028 37.25502,2.461029 z M 114.204,42.974998 c -0.108,0.527001 -0.21399,1.055001 -0.32,1.584 -1.205,0 -2.43599,-0.160999 -3.612,0.028 -5.115,0.82 -10.258,1.557999 -15.283993,2.769001 -1.083001,0.259998 -1.721001,2.355 -2.566002,3.604 1.273002,0.745998 2.477997,1.679001 3.843002,2.169998 0.874001,0.314999 1.982002,-0.012 2.983002,-0.069 19.044001,-1.104 37.872001,0.643002 55.863001,6.908001 20.05299,6.984997 39.78999,14.913998 59.496,22.852001 14.12601,5.688004 28.46201,11.156998 41.85701,18.311001 36.646,19.572 68.69199,44.346 88.078,82.55901 1.11301,2.207 4.39899,3.313 6.67301,4.929 0.38101,-2.597 1.936,-5.824 0.94101,-7.69 -4.956,-9.29801 -9.417,-19.24001 -16.18702,-27.125 C 312.73901,126.73701 285.99503,103.468 252.82303,89.492004 220.32004,75.794006 187.22104,63.417004 153.98102,51.602005 141.30299,47.094002 127.497,45.754002 114.204,42.974998 Z M 86.594002,196.73599 c -3.056999,-0.377 -3.851998,-0.623 -4.600998,-0.52699 -0.977997,0.121 -1.999001,0.367 -2.870003,0.813 C 61.307999,206.16901 44.91,217.77301 35.535,235.55701 25.389999,254.79601 16.608,275.04102 9.8390007,295.703 0.04600048,325.59399 0.87000084,355.418 17.771,383.418 c 2.879,4.76999 4.413999,10.32599 6.972999,15.31201 4.925,9.59799 10.008999,19.11701 15.324002,28.49899 1.229,2.168 3.410999,4.10501 5.613998,5.29999 1.379002,0.75 3.619,-0.084 5.471001,-0.20901 -0.265999,-1.608 -0.110001,-3.45801 -0.869999,-4.776 -2.998001,-5.20902 -6.784,-10.01099 -9.366001,-15.40299 -7.623001,-15.905 -14.791001,-32.02499 -22.178,-48.04401 -6.264,-13.578 -7.371999,-27.88699 -5.541999,-42.43899 3.500999,-27.87201 14.065999,-53.439 27.020002,-78.007 3.667,-6.95301 8.974998,-13.41001 14.746002,-18.795 8.174,-7.629 17.547005,-13.963 26.237999,-21.058 1.899994,-1.55199 3.086998,-3.98099 5.392998,-7.062 z M 218.952,299.63101 c -0.60801,0.29599 -1.213,0.59 -1.821,0.88599 -1.73601,-3.44602 -3.776,-6.776 -5.146,-10.366 -2.71001,-7.10901 -4.879,-14.42898 -7.59801,-21.534 -2.49,-6.518 -6.91499,-9.32299 -12.12399,-8.30899 -5.30099,1.03299 -7.87601,5.16901 -7.498,12.612 0.558,10.93799 4.759,20.75501 10.619,29.70002 3.568,5.45401 7.92,10.71301 12.93801,14.824 6.791,5.56699 15.384,2.57401 18.40199,-5.74399 1.07001,-2.96798 1.597,-6.238 1.772,-9.40298 0.927,-16.47901 -5.593,-30.51999 -15.059,-43.358 -1.277,-1.736 -5.267,-3.312 -6.91901,-2.564 -3.61501,1.634 -2.02901,5.065 -0.439,7.72501 2.46201,4.11801 5.49401,7.936 7.553,12.23098 3.50601,7.32197 7.56001,14.67295 5.32001,23.29996 z M 183.369,0 c -1.873,1.6040001 -3.656,3.1359999 -5.44,4.665 1.476,1.5659999 2.677,3.6979999 4.487,4.5679998 3.041,1.4589992 6.616,1.7780002 9.7,3.1590002 24.31799,10.889 48.612,21.824 72.828,32.936003 12.01099,5.511002 22.26401,13.364998 30.76901,23.623001 5.24201,6.321999 11.04502,12.207001 16.905,17.969002 1.62702,1.595001 4.37399,2.046997 6.60401,3.024002 -0.33301,-2.537003 0.012,-5.459999 -1.16102,-7.519997 -1.854,-3.257004 -4.682,-5.971 -7.17199,-8.847999 -2.23001,-2.577004 -4.784,-4.899002 -6.81299,-7.619004 C 295.24902,54.13501 284.13501,45.02301 270.966,38.603008 249.164,27.977009 227.259,17.544008 205.215,7.4330082 198.534,4.368 191.241,2.632 183.369,0 Z m -47.667,340.73999 c -0.74001,0.16199 -1.482,0.32599 -2.224,0.491 0,2.879 -0.62801,5.92999 0.099,8.61099 6.87899,25.34799 20.02999,45.65201 44.893,57.16501 25.148,11.64801 48.759,8.655 71.565,-5.76999 2.832,-1.79099 5.30901,-4.314 7.46601,-6.89999 0.91198,-1.08899 1.315,-4.10001 0.61899,-4.70002 -1.26099,-1.095 -3.579,-1.527 -5.34101,-1.311 -1.369,0.172 -2.60699,1.698 -3.839,2.70199 -32.278,26.31202 -80.61501,15.61499 -98.599,-21.83898 -3.65,-7.60401 -7.13401,-15.28101 -10.843,-22.853 -0.98099,-2.00501 -2.516,-3.73801 -3.79599,-5.59601 z M 233.17799,1.914 c -3.81599,1.6919999 -6.589,2.9190002 -9.363,4.1479998 1.71499,1.9310002 3.06199,4.5170012 5.194,5.6859992 11.414,6.265 22.96,12.310999 34.63499,18.082001 1.89401,0.938 4.651,0.128 7.01001,0.125999 C 269.845,27.923 269.586,25.271 268.12399,23.969 262.586,19.038 257.00299,14.007 250.776,10.052 245.35001,6.6030002 239.035,4.553 233.17799,1.914 Z m 85.726,431.17801 c -0.54599,-1.22 -0.86401,-3.22 -1.703,-3.47601 -1.23499,-0.37 -3.26099,0.051 -4.23499,0.927 -7.45001,6.69199 -14.89599,13.41699 -21.93399,20.535 -1.52801,1.542 -1.39898,4.71399 -2.03601,7.13501 2.60401,0.095 6.168,1.33701 7.64099,0.095 6.97101,-5.889 13.49399,-12.333 19.879,-18.871 1.392,-1.42102 1.564,-4.03302 2.388,-6.345 z M 35.355,323.01901 c -6.625,4.65201 -8.289,12.55701 -5.597001,19.521 0.965001,2.491 3.311001,4.44601 5.027001,6.64801 0.806,-0.396 1.615002,-0.788 2.423,-1.18399 -0.616001,-8.32904 -1.235,-16.65903 -1.853,-24.98502 z"
             style="fill:#ffffff;fill-opacity:1;fill-rule:nonzero;stroke:none"
             id="path1253"
             inkscape:connector-curvature="0" /><path
             d="m 68.973,345.67899 c 2.279998,-5.87601 -2.920998,-13.16102 3.733001,-19.23801 1.125,2.00699 2.344002,3.366 2.679001,4.91901 1.791001,8.268 3.237999,16.42099 -1.243004,24.591 -1.307998,2.384 -1.223999,6.41699 -0.183998,9.07199 13.650002,34.86398 35.561,63.13602 67.579,83.08798 15.579,9.711 32.062,16.35501 50.93801,16.21201 15.824,-0.12 31.696,1.61899 47.462,0.836 8.351,-0.418 16.57401,-4.293 24.73902,-6.96302 2.212,-0.72601 3.992,-2.751 5.97399,-4.17999 -0.237,-0.56699 -0.47198,-1.13599 -0.70999,-1.70401 -2.802,0.50601 -5.61499,0.94901 -8.406,1.52399 -8.847,1.83499 -17.648,3.879 -26.528,5.53799 -12.414,2.323 -24.758,1.74701 -37.095,-1.048 -11.93801,-2.702 -24.139,-4.39899 -35.89901,-7.706 -6.983,-1.96399 -14.222,-5.07699 -19.83,-9.56698 -42.412,-33.96399 -65.629995,-77.37799 -62.936003,-132.74899 0.603997,-12.413 1.981003,-24.88199 4.230004,-37.098 3.310997,-17.97599 13.859001,-32.44 26.645999,-44.60901 9.31301,-8.86399 20.284,-16.421 31.55901,-22.681 16.136,-8.95199 33.798,-7.121 51.211,-3.49099 2.948,0.61599 5.854,1.539 8.82699,1.91299 26.952,3.388 43.67101,19.82401 55.60401,42.83901 16.117,31.08 20.297,63.87901 14.53,98.06999 -2.60401,15.466 -10.48902,27.67401 -23.435,37.20099 -12.57899,9.25699 -25.57899,16.31201 -41.35901,18.02899 -15.75101,1.715 -27.998,-5.414 -39.496,-14.59299 -1.371,-1.09601 -1.196,-4.117 -1.73801,-6.246 2.181,-0.091 4.653,-0.896 6.496,-0.14999 8.11001,3.28601 15.74201,8.173 24.097,10.333 15.041,3.89099 29.228,-1.53399 40.847,-10.143 9.439,-6.996 16.319,-17.469 24.17701,-26.538 1.139,-1.315 1.39199,-3.39599 2.05398,-5.125 -0.47198,-0.333 -0.944,-0.66699 -1.418,-1.00299 -1.919,1.83499 -3.97,3.55301 -5.73901,5.52399 -13.28999,14.827 -30.84601,22.20499 -49.33,27.42099 -13.377,3.776 -23.758,-0.22 -30.00099,-12.70001 -13.709,-27.40201 -24.94501,-55.82001 -25.905,-87.04401 -0.379,-12.315 0.352,-24.77 10.764,-33.76599 3.44501,-2.978 7.372,-5.392 10.773,-9.465 -2.172,0.601 -4.453,0.957 -6.5,1.846 -10.308,4.47999 -14.65199,13.843 -18.06101,23.49101 -3.06399,8.67001 -5.36799,17.651 -7.432,26.62601 -1.907,8.294 -0.81501,16.39898 3.72999,23.82 2.099,3.42499 3.957,7.04099 6.392,10.20899 9.24201,12.022 10.85001,27.052 16.11701,40.62601 0.669,1.72299 -0.84801,4.29 -1.35201,6.462 -1.94501,-0.59 -4.985,-0.586 -5.668,-1.85699 -9.17599,-17.01801 -24.726,-30.607 -28.168,-50.663 -3.01899,-17.578 -0.546,-34.93399 4.784,-51.71701 2.628,-8.27901 6.16099,-16.62399 11.019,-23.759 8.65899,-12.71001 21.84399,-15.651 36.31399,-12.674 14.924,3.066 29.60401,7.623 39.25,20.319 14.509,19.092 20.94901,40.71901 14.85001,64.527 -5.60401,21.88 -24.56101,27.67099 -42.17999,13.462 -11.989,-9.67001 -16.74801,-22.68799 -16.70501,-37.73599 0.004,-1.26502 0.612,-2.52701 0.93801,-3.79099 0.628,-0.18701 1.25399,-0.36999 1.88099,-0.55301 1.59301,3.607 3.60001,7.098 4.69201,10.85401 2.703,9.311 7.19099,17.43799 14.539,23.83099 11.54199,10.02799 24.264,7.35501 28.96299,-7.22699 6.15401,-19.10699 1.78301,-37.07 -10.58599,-52.61999 -5.93001,-7.45301 -13.025,-14.194 -22.689,-17.01401 -9.71001,-2.832 -18.314,-0.48 -25.44,6.451 -11.092,10.78701 -13.82601,24.678 -11.062,38.967 3.073,15.89001 7.961,31.457 12.60401,47 2.03999,6.83499 7.16499,11.16101 14.06799,13.86099 8.007,3.13501 15.442,7.76502 23.494,10.772 4.63001,1.72901 10.26,2.92701 14.952,1.97101 20.89399,-4.25299 37.36601,-23.88699 39.36601,-45.707 1.79099,-19.57901 -2.978,-37.85101 -11.062,-55.45401 -1.58999,-3.462 -3.197,-6.916 -4.82,-10.362 -11.308,-24.048 -30.54601,-37.004 -56.60401,-40.345 -6.377,-0.817 -12.75999,-1.70399 -19.168,-2.14 -14.705,-1 -27.688,4.015 -39.431,12.381 -15.804,11.26401 -27.61499,26.13901 -37.411999,42.707 -1.007004,1.707 -1.737999,3.67099 -2.160004,5.608 -7.030998,32.37 -11.020004,64.91202 2.097,96.58701 5.077003,12.259 12.537003,23.73098 20.183003,34.673 7.222,10.33801 16.147,19.48001 24.25999,29.198 5.54601,6.646 12.27299,11.28201 20.575,14.06201 35.106,11.767 70.49099,14.638 105.79501,1.89801 38.42499,-13.86499 61.39899,-40.44299 66.538,-82.129 4.10598,-33.32501 2.48699,-66.26001 -3.76902,-98.94101 -1.90799,-9.97799 -7.535,-19.3 -11.84298,-28.744 -5.659,-12.40601 -12.564,-24.311 -17.37,-37.022 -6.57101,-17.375 -20.03699,-27.08901 -35.22,-35.463 -3.392,-1.87199 -6.948,-3.441 -10.429,-5.14999 -0.388,0.522 -0.776,1.042 -1.161,1.56599 1.70301,1.608 3.194,3.56799 5.15,4.771 16.992,10.46699 30.86401,23.643 38.406,42.643 1.245,3.13899 3.09201,6.14301 5.15,8.83501 19.022,24.87199 24.98098,54 27.169,84.216 1.15702,16.025 1.79099,32.121 1.831,48.18799 0.10901,41.28101 -20.487,69.776 -56.021,88.64801 -25.74001,13.67401 -52.894,16.978 -81.261,10.64099 -11.16701,-2.49499 -22.328,-5.03699 -33.409,-7.879 -3.92799,-1.00799 -9.815,-2.389 -8.289,-7.466 1.43401,-4.76599 6.87601,-2.16901 10.621,-1.33301 15.47501,3.46201 30.79201,7.81 46.403,10.414 45.586,7.59702 98.11399,-25.01098 109.78,-67.69998 1.47299,-5.38501 2.32999,-11.02899 2.69602,-16.60699 2.07299,-31.85102 1.07998,-63.61499 -7.22001,-94.55799 -2.84298,-10.61099 -8.975,-20.38099 -13.93499,-30.36999 -3.21201,-6.46201 -7.857,-12.304 -10.413,-18.97501 -7.418,-19.36599 -20.79901,-33.06399 -38.43699,-43.18699 -23.37401,-13.416 -48.411,-22.84 -74.66899,-28.09101 -25.69201,-5.138 -50.71,1.017 -75.264,8.65601 -20.740002,6.45399 -38.251004,18.34801 -54.612004,32.233 -9.187,7.79601 -18.344,15.646 -27.870001,23.013 -2.259001,1.747 -5.945,1.644 -8.975,2.388 1.27,-3.136 1.656,-7.319 3.943,-9.246 21.364998,-17.97301 42.689999,-36.15001 67.883004,-48.70799 8.205002,-4.09 17.267997,-6.46001 25.934001,-9.623 2.21,-0.806 4.412,-1.63401 6.61699,-2.45101 -0.06,-0.53799 -0.121,-1.07699 -0.181,-1.614 -2.537,0 -5.372,-0.75 -7.55699,0.12601 -10.767004,4.321 -21.848005,8.21401 -31.903005,13.883 -13.960999,7.86999 -27.079003,17.22999 -40.623001,25.85 -3.366,2.14101 -6.826001,4.35401 -10.553002,5.608 -1.708999,0.577 -4.17,-1.07899 -6.288999,-1.723 0.792999,-2.015 1.004999,-5.07001 2.468,-5.89101 24.854,-13.916 49.230995,-28.914 75.009003,-40.884 27.248004,-12.652 56.332004,-10.126 84.415994,-1.771 18.20199,5.414 35.66299,13.323 53.451,20.12801 3.392,1.29699 6.754,2.66499 10.13201,4 0.31799,-0.555 0.641,-1.109 0.959,-1.665 -1.71001,-1.46499 -3.20101,-3.434 -5.176,-4.32299 -36.099,-16.21601 -72.817,-30.419 -113.436,-27.41201 -23.19,1.72 -44.371998,10.92501 -64.950992,21.015 -9.433998,4.625 -17.84,11.32201 -26.876999,16.80901 -1.717999,1.04201 -4.209,0.813 -6.344999,1.173 0.035,-2.363 -0.692,-5.132 0.297,-6.98199 1.253001,-2.342 3.688,-4.25101 5.982001,-5.804 45.722004,-30.958 94.570999,-45.275 149.365999,-27.96 12.633,3.993 25.344,7.746 38.077,11.42699 24.253,7.019 45.968,18.941 65.80299,34.33 4.69199,3.637 9.44,7.93001 12.396,12.959 23.52301,40.004 42.76999,81.909 52.49499,127.53901 3.59,16.82 7.01099,33.927 4.56101,51.393 -0.642,4.56699 -1.24201,9.237 -2.75901,13.54199 -0.682,1.93399 -3.578,3.08402 -5.46899,4.59 -0.79501,-1.98901 -2.32501,-4.008 -2.26401,-5.97101 0.45002,-14.022 1.366,-28.03299 1.79801,-42.05499 0.11801,-3.82102 -0.90702,-7.67499 -1.40601,-11.51401 -0.608,0.025 -1.216,0.052 -1.824,0.077 -0.12799,2.41 -0.24799,4.82 -0.38901,7.23001 -0.944,16.64599 -1.216,33.362 -3.00299,49.91998 -2.659,24.57501 -17.24201,42.72199 -34.43701,59.04102 -10.01902,9.505 -20.172,18.87799 -30.534,28.00698 -3.366,2.96702 -7.341,5.55701 -11.46899,7.30399 -24.612,10.439 -50.062,9.28601 -75.887,5.67801 -65.363,-9.13199 -105.346998,-47.45801 -126.094,-108.31198 -6.116001,-17.94101 -5.507,-36.15399 -3.276001,-54.784 2.82,-23.55701 6.907997,-46.56299 19.517998,-67.058 20.249001,-32.91299 48.300993,-54.931 87.918003,-57.94 11.696,-0.88901 23.74,2.687 35.608,4.332 2.886,0.399 5.703,1.267 8.557,1.92301 0.25301,-0.571 0.50901,-1.139 0.762,-1.70701 -2.648,-1.429 -5.183,-3.16799 -7.97099,-4.235 -32.549,-12.434 -63.029,-8.264 -91.479,11.648 -2.963,2.073 -5.79,4.36301 -8.852,6.27499 -14.343001,8.94901 -24.608,20.722 -31.596999,36.64101 -13.246002,30.168 -22.021999,61.15799 -21.765998,94.12201 0.293998,37.94 17.459999,69.53 40.138999,98.509 3.865998,4.94101 9.404999,8.74701 14.635998,12.41 9.862,6.91199 19.89,13.63001 30.20301,19.84299 4.89,2.944 10.412,5.42499 15.96699,6.582 19.65,4.08802 39.368,7.98099 59.20801,10.94901 7.567,1.12701 15.537,-0.42999 23.325,-0.80301 1.392,-0.07 2.974,-0.83899 4.121,-0.392 2.033,0.78699 3.80299,2.26001 5.681,3.44699 -1.442,1.465 -2.622,3.63001 -4.369,4.28501 -10.795,4.06201 -21.982,4.587 -33.24601,2.50201 -18.55999,-3.43701 -37.13499,-6.832 -55.58999,-10.78 -5.579,-1.19 -11.161,-3.51001 -16.073,-6.43301 -11.209,-6.67401 -21.958,-14.11301 -32.982,-21.10599 -12.124996,-7.69101 -21.944995,-17.66199 -28.979991,-30.112 -13.035,-23.056 -26.692002,-45.86899 -31.097,-72.67502 -3,-18.24899 0.291999,-36.03601 3.339,-53.85599 2.921002,-17.08499 7.603001,-33.61599 15.952999,-48.94999 0.714001,-1.312 0.911999,-2.905 1.349999,-4.37 -0.583,-0.304 -1.162998,-0.608 -1.744999,-0.916 -4.091,7.308 -8.916,14.308 -12.101002,21.98901 -4.514999,10.883 -7.810001,22.267 -11.645,33.43299 -2.867001,8.35199 -5.544001,16.772 -8.702,25.01098 -3.652,9.52701 -3.621,18.55301 0.934,27.93 8.24,16.961 15.934,34.18799 23.820997,51.323 16.257996,35.31799 43.169999,60.36599 76.283997,79.553 2.43401,1.41001 4,4.31501 5.968,6.52701 -3.108,0.305 -6.567,1.61499 -9.247,0.68201 -4.465,-1.55399 -8.824,-4.052 -12.53499,-7.01901 -11.764,-9.414 -23.363004,-19.047 -34.737005,-28.92701 -19.996002,-17.36999 -31.493999,-40.238 -41.273998,-64.268 -4.079998,-10.022 -8.730999,-19.854 -13.762001,-29.43601 -6.903,-13.139 -8.938,-26.19 -3.494999,-40.527 8.396,-22.11402 15.923,-44.55399 24.048,-66.77301 1.285999,-3.51601 3.605999,-6.70301 5.722,-9.857 9.517002,-14.179 21.967999,-25.41 35.874005,-35.106 12.819999,-8.938 24.830998,-19.663 38.783998,-26.229 37.65599,-17.72201 74.83299,-12.59101 106.588,12.70899 32.10299,25.579 51.83499,60.073 57.22699,101.79902 2.414,18.677 3.16101,37.22799 -0.20801,55.81298 -2.14002,11.77601 -7.18399,22.103 -15.81299,30.52301 -1.42499,1.39301 -2.97101,2.956 -4.76199,3.594 -1.86499,0.66199 -4.09601,0.293 -6.16501,0.37399 0.17999,-2.01199 -0.048,-4.17999 0.655,-5.98199 0.70001,-1.79801 2.11401,-3.47901 3.59399,-4.78 12.50601,-11.04001 15.883,-25.828 16.146,-41.38901 0.40701,-23.86401 -2.26401,-47.56699 -11.52399,-69.69199 -5.76199,-13.76199 -13.87399,-26.578 -21.425,-39.531 -2.14901,-3.685 -5.61901,-6.97099 -9.187,-9.403 -52.326,-35.676 -106.022,-26.051 -143.300995,19.166 -17.858002,21.659 -26.163002,47.53799 -27.559997,75.63299 -0.488999,9.81699 -1.867997,19.59 -2.496003,29.40302 -0.174003,2.70401 0.896004,5.487 1.396004,8.23401 0.625954,-0.11203 1.246948,-0.22504 1.867951,-0.33804 z m 115.06901,9.24902 c 1.985,9.74701 8.27099,15.216 14.74699,14.06201 1.663,-0.29599 3.554,-1.78799 4.36701,-3.267 0.362,-0.656 -1.37101,-3.27899 -2.678,-3.90899 -4.919,-2.35904 -10.061,-4.26703 -16.436,-6.88602 z M 149.325,337.78799 c 0.766,-0.44 1.531,-0.875 2.29699,-1.31399 -2.468,-4.14999 -4.93499,-8.301 -7.403,-12.45099 -0.69,0.40302 -1.38099,0.806 -2.07299,1.20902 2.393,4.18197 4.785,8.36996 7.179,12.55596 z"
             style="fill:#ffffff;fill-opacity:1;fill-rule:evenodd;stroke:none"
             id="path1255"
             inkscape:connector-curvature="0" /><path
             d="m 214.595,357.06201 c -1.31399,-5.406 1.74001,-7.00299 4.96401,-8.43201 4.945,-2.194 9.97099,-4.21701 14.847,-6.561 1.82299,-0.87601 3.30799,-2.45801 4.94799,-3.71899 -0.224,-0.47901 -0.447,-0.95902 -0.667,-1.43799 -1.33701,0.31799 -2.75,0.453 -3.99201,0.98498 -4.981,2.13501 -9.865,4.49701 -14.865,6.586 -13.58901,5.677 -25.245,2.39899 -34.883,-8.246 -15.395,-17.00299 -20.50999,-37.42801 -18.24499,-59.73999 1.07499,-10.586 5.513,-20.09799 13.554,-27.523 5.91499,-5.46499 12.63,-6.403 18.509,-2.044 1.711,1.268 2.24499,4.117 3.32201,6.238 -1.93401,0.527 -3.905,1.627 -5.78,1.472 -8.11701,-0.64399 -12.168,1.319 -16.14301,8.43302 -11.399,20.392 -3.907,56.11001 14.663,70.42999 8.483,6.54199 17.22399,7.88599 26.90499,2.64401 5.98101,-3.237 12.60401,-5.39199 18.28101,-9.05099 2.96401,-1.91199 5.97501,-5.802 6.47701,-9.16901 4.641,-31.12799 -3.989,-58.626 -25.312,-81.51599 -18.74001,-20.117 -60.037,-22.781 -80.60401,-4.909 -22.07699,19.18 -35.41899,42.93799 -37.60099,73.31501 -2.165,30.17599 11.036,54.44299 24.921,78.94101 6.318,11.14599 14.80199,20.505 25.458,27.75799 1.88699,1.28299 3.914,2.35901 5.87699,3.53101 0.469,-0.56299 0.93601,-1.12799 1.405,-1.69501 -3.20199,-2.83499 -6.537,-5.534 -9.584,-8.53201 -22.754,-22.36499 -36.679,-49.43201 -39.46099,-81.13101 -1.76201,-20.06601 1.40799,-40.14002 9.03099,-59.08802 2.35501,-5.85699 5.462,-11.47999 8.874,-16.79199 1.028,-1.601 4.243,-1.795 6.456,-2.634 0.405,2.392 1.623,5.011 1.037,7.125 -1.104,3.978 -2.892,7.88299 -5.026,11.43899 -11.565,19.275 -10.789,39.64801 -6.28601,60.61899 1.13,5.26401 0.068,10.95999 0.64601,16.388 0.59,5.521 1.174,11.26099 3.132,16.38199 7.672,20.06201 19.95301,37 36.15801,51.13501 9.306,8.11401 19.832,13.26901 32.341,12.33398 11.563,-0.86801 23.28101,-1.70001 34.538,-4.27099 30.94899,-7.065 47.27101,-29.04401 56.48698,-57.75101 9.98099,-31.07998 7.64499,-62.25299 -1.84299,-92.56698 -13.89001,-44.396 -41.462,-77.43601 -86.129,-94.03701 -29.22299,-10.863 -57.96299,-8.16499 -86.179,4.29 -12.655,5.58599 -25.374996,11.065 -38.288997,16.018 -12.089997,4.633 -22.700001,11.282 -31.094002,21.069 -13.550999,15.802 -24.751,33.194 -32.709999,52.465 -2.581,6.25201 -3.6040004,13.12799 -5.7860001,19.56799 -0.6230001,1.83899 -2.8119998,3.14899 -4.2839999,4.702 -0.9390001,-1.81201 -2.85199998,-3.74301 -2.64799999,-5.41599 C 0.73700196,278.72501 1.304002,272.51999 3.4980021,267.04401 13.218002,242.787 26.461002,220.52 44.831001,201.823 50.743,195.808 58.286003,190.827 65.952003,187.21899 c 15.96,-7.516 32.411995,-14.022 48.818997,-20.544 34.656,-13.778 69.488,-15.42101 103.27101,1.99 24.29699,12.523 43.51399,31.185 59.00099,53.91001 21,30.817 25.48199,65.66401 26.42499,101.55699 0.38101,14.60199 -1.62299,28.74399 -6.92801,42.491 -14.63001,37.91198 -42.21601,58.20999 -82.446,62.57199 -15.608,1.69101 -30.81999,1.414 -46.017,-2.47699 -14.87399,-3.81 -27.392,-11.202 -37.082,-23.26801 -15.017,-18.703 -27.146,-39.35901 -33.403,-62.29001 -7.085999,-25.96701 -4.321999,-52.12399 6.475,-77.18298 6.152,-14.278 14.958,-26.34399 26.79999,-36.46899 16.67,-14.25701 35.467,-20.45101 57.02201,-15.36701 24.31799,5.73599 46.735,15.187 56.908,40.44 8.67,21.534 15.015,43.89099 10.35201,67.513 -3.51401,17.784 -13.11,30.931 -31.41001,36.03699 -2.92398,0.82202 -6.12098,0.64902 -9.14398,0.93103 z"
             style="fill:#ffffff;fill-opacity:1;fill-rule:evenodd;stroke:none"
             id="path1257"
             inkscape:connector-curvature="0" /><path
             d="M 307.44601,98.401001 C 302.164,92.352005 297.34003,85.806 291.50403,80.348 c -16.237,-15.187005 -36.079,-24.590001 -56.183,-33.344002 -19.688,-8.572998 -39.491,-16.898001 -59.375,-25 -6.086,-2.479 -12.614,-3.872 -18.942,-5.758 -2.49401,-0.744 -5.265,-1.036999 -7.403,-2.357 -1.569,-0.972999 -2.31301,-3.282 -3.42501,-4.9960003 1.786,-0.9429998 3.77401,-2.947 5.32201,-2.6500001 7.06101,1.3550001 14.35201,2.5090003 20.914,5.2710004 29.769,12.535 59.35201,25.521997 88.941,38.484003 16.686,7.310001 30.62298,18.357002 42.14599,32.384003 5.607,6.820999 11.17301,13.736 16.06202,21.073996 8.462,12.688 16.388,25.732 24.509,38.646 0.74399,1.183 1.85101,2.53701 1.77701,3.75001 -0.15,2.49699 -0.98499,4.951 -1.53501,7.421 -1.97799,-1.23399 -4.97101,-2.00301 -5.77899,-3.772 -13.09299,-28.572 -36.63501,-44.995 -64.729,-56.134006 -39.719,-15.749 -79.38201,-31.669998 -119.318,-46.868 -14.145,-5.382999 -29.14599,-7.451 -44.461,-5.069999 -1.56899,0.243999 -3.399,-1.194001 -5.11,-1.852002 0.80401,-1.714 1.16501,-4.182998 2.51101,-4.974998 2.293,-1.348 5.16999,-2.103001 7.861,-2.299999 18.03499,-1.326 35.286,2.949001 51.77899,9.354 31.78101,12.340999 63.18801,25.653999 94.75701,38.555 2.97,1.213997 5.96301,2.393997 8.96701,3.519997 0.50101,0.188003 1.13501,0.028 3.17899,0.028 -3.20801,-2.235001 -5.20801,-4.136002 -7.586,-5.202004 C 232.16701,63.194 198.05,47.59 163.563,32.849998 c -12.63899,-5.402999 -26.42399,-6.556999 -40.27999,-5.250999 -1.80401,0.171 -3.75,-1.174 -5.628,-1.815001 1.181,-1.86 2.15899,-5.138999 3.581,-5.346 7.63899,-1.108 16.013,-3.636 22.98199,-1.645001 19.79601,5.654002 39.422,12.343001 58.39701,20.338999 21.238,8.952999 41.688,19.784001 62.48301,29.797005 13.60102,6.548996 24.72299,16.367996 35.39899,26.788002 1.62299,1.583 3.483,2.922996 5.23401,4.374997 0.57098,-0.564 1.14398,-1.125997 1.71499,-1.690999 z"
             style="fill:#ffffff;fill-opacity:1;fill-rule:evenodd;stroke:none"
             id="path1259"
             inkscape:connector-curvature="0" /><path
             d="m 202.88901,109.271 c -1.29801,-0.72899 -2.54601,-1.583 -3.905,-2.17099 C 160.36999,90.411003 120.5,88.216003 79.767998,97.097 c -5.032997,1.097 -9.809998,3.394 -14.677002,5.21 -4.533001,1.694 -11.015,5.967 -13.197998,0.513 -2.127999,-5.313004 5.334999,-7.781998 9.974998,-8.812004 16.218003,-3.598999 32.505997,-7.004998 48.899004,-9.661004 29.683,-4.809997 57.938,0.749001 85.11499,13.013001 4.931,2.224998 10.293,3.552997 15.095,6.002997 9.242,4.716 18.422,9.608 27.26401,15.02201 15.569,9.53299 30.77701,19.641 46.28201,29.274 23.43701,14.56399 39.57599,34.682 48.48401,60.92199 7.54501,22.23 16.319,44.047 23.79401,66.29999 3.36401,10.01901 5.26501,20.58701 7.06298,31.03699 0.72501,4.20099 -0.604,8.755 -1.001,13.14999 -0.96601,0.25601 -1.93399,0.50901 -2.9,0.76599 -1.45801,-2.40701 -4.08099,-4.76599 -4.19699,-7.238 -1.169,-25.05899 -11.48001,-47.42902 -20.005,-70.35199 -3.56699,-9.586 -6.43799,-19.42101 -9.87101,-29.05901 -7.25299,-20.392 -17.678,-38.8 -35.539,-51.778 -19.501,-14.17 -39.39799,-28.075 -62.237,-36.249 -15.619,-5.59 -32.194,-8.43799 -48.13099,-13.227 -36.095,-10.84999 -71.70301,-9.19999 -107.207004,2.659 -10.545997,3.523 -19.514999,9.066 -27.232002,17.049 -1.655998,1.71 -4.983002,1.806 -7.541,2.645 0.379001,-2.724 -0.047,-5.947 1.278999,-8.081 5.508999,-8.865 13.986999,-14.31 23.502998,-17.987 27.874001,-10.775002 56.913999,-14.485001 86.410999,-11.014999 14.79101,1.739997 29.19001,6.836999 43.756,10.468999 3.19501,0.797 6.341,1.81301 9.51,2.72901 0.14498,-0.37496 0.28498,-0.75096 0.427,-1.12796 z"
             style="fill:#ffffff;fill-opacity:1;fill-rule:evenodd;stroke:none"
             id="path1261"
             inkscape:connector-curvature="0" /><path
             d="m 311.677,323.39899 c -2.30899,-16.473 -3.69299,-33.146 -7.242,-49.348 -2.418,-11.018 -7.594,-21.479 -11.99201,-31.996 -25.375,-60.621 -69.19101,-86.32599 -121.29901,-88.724 -55.70199,-2.56199 -103.155996,16.517 -139.695997,59.87 -5.823,6.909 -11.504,13.96001 -17.690001,20.528 -1.817,1.927 -6.1869995,4.117 -7.6009996,3.256 -4.0859999,-2.495 -1.2790003,-6.323 0.7360001,-8.737 20.9930005,-25.13901 41.6889995,-50.29601 72.7220005,-64.559 40.476997,-18.604 81.734997,-25.16299 125.366007,-13.815 40.938,10.65 68.487,37.68601 88.52099,73.06301 27.11301,47.87901 32.012,98.89698 18.16101,151.904 -0.54998,2.10599 -1.268,4.305 -2.458,6.08499 -11.23801,16.806 -24.11002,32.314 -40.607,44.08402 -14.088,10.048 -31.08099,11.31201 -47.77299,12.39301 -1.83501,0.11999 -3.81,-1.94501 -5.71801,-3.004 1.739,-1.07401 3.34801,-2.638 5.24601,-3.15 11.75799,-3.19101 23.597,-6.099 35.373,-9.22799 1.90501,-0.50901 3.88301,-1.35501 5.41801,-2.564 24.43601,-19.281 45.83499,-40.578 48.15702,-74.212 0.49398,-7.21302 0.88699,-14.43302 1.32598,-21.64801 0.34998,-0.066 0.698,-0.13102 1.04999,-0.19803 z"
             style="fill:#ffffff;fill-opacity:1;fill-rule:evenodd;stroke:none"
             id="path1263"
             inkscape:connector-curvature="0" /><path
             d="M 149.819,68.333 C 137.39999,67.514 124.982,66.709999 112.564,65.873001 100.01599,65.028999 87.891998,66.863998 76.501999,72.791 c -1.634003,-6.899002 0.611999,-11.003997 7.199997,-12.317001 7.241997,-1.445 14.760002,-2.558998 22.095004,-2.269001 15.026,0.597 30.128,1.465 44.961,3.754002 7.43299,1.148998 14.402,5.539001 21.46699,8.710998 4.007,1.800003 7.58099,4.744003 11.70799,6.079003 38.168,12.362999 72.98499,31.334999 105.978,53.795009 30.198,20.559 53.08402,47.32499 64.923,82.218 4.80701,14.158 7.26099,29.14999 10.16901,43.882 0.57102,2.887 -1.42499,8.94199 -2.69199,9.07001 -5.341,0.54501 -5.98498,-4.466 -6.30398,-8.37 -1.57102,-19.231 -6.42899,-37.67399 -14.55301,-55.022 -12.36301,-26.414 -31.28299,-47.42801 -55.44699,-63.79401 -22.64801,-15.342 -46.293,-28.83499 -71.04001,-40.567996 C 170.784,77.011002 125.33,72.950996 78.267998,86.004997 74.789001,86.969994 71.261002,87.903999 67.693001,88.349998 66.244003,88.528999 63.618,87.673996 63.327,86.733002 c -0.418,-1.343003 0.36,-3.697998 1.463001,-4.713997 1.529999,-1.408997 3.767998,-2.167999 5.817001,-2.870003 21.608002,-7.403999 43.834998,-9.561996 66.530998,-7.805 2.993,0.233001 6.022,0.077 9.033,-0.003 1.17101,-0.031 2.333,-0.353996 3.5,-0.541999 0.049,-0.823006 0.099,-1.645005 0.148,-2.466004 z"
             style="fill:#ffffff;fill-opacity:1;fill-rule:evenodd;stroke:none"
             id="path1265"
             inkscape:connector-curvature="0" /><path
             d="m 114.204,42.974998 c 13.293,2.779999 27.09901,4.119 39.77799,8.626 33.24001,11.814999 66.33899,24.192001 98.84202,37.889999 C 285.996,103.468 312.73901,126.737 335.97,153.804 c 6.76999,7.88499 11.23001,17.826 16.18701,27.125 0.99399,1.866 -0.561,5.093 -0.94101,7.69 -2.27301,-1.615 -5.55999,-2.722 -6.673,-4.929 C 325.15701,145.478 293.10999,120.703 256.465,101.131 243.069,93.977005 228.73399,88.508003 214.608,82.820007 194.90201,74.882004 175.166,66.953011 155.112,59.96801 137.121,53.703011 118.294,51.955009 99.249001,53.060009 c -1.001,0.057 -2.110001,0.384998 -2.983002,0.069 -1.364998,-0.491001 -2.57,-1.424 -3.843002,-2.170002 0.845001,-1.249 1.483001,-3.345001 2.566001,-3.604 5.026002,-1.210998 10.169002,-1.949001 15.283992,-2.769001 1.17601,-0.188 2.407,-0.028 3.61201,-0.028 0.105,-0.529007 0.21,-1.056007 0.319,-1.583008 z"
             style="fill:#ffffff;fill-opacity:1;fill-rule:evenodd;stroke:none"
             id="path1267"
             inkscape:connector-curvature="0" /><path
             d="m 86.594002,196.73599 c -2.306,3.081 -3.493004,5.50901 -5.393997,7.05901 -8.691002,7.095 -18.064,13.429 -26.237999,21.058 -5.771,5.38499 -11.079003,11.843 -14.746003,18.79499 -12.954,24.56801 -23.518999,50.135 -27.02,78.00701 -1.83,14.55301 -0.722,28.86099 5.542,42.43899 7.387001,16.01902 14.555,32.13901 22.177997,48.04401 2.583001,5.39301 6.368,10.194 9.366001,15.40302 0.759999,1.31799 0.604001,3.16799 0.869999,4.776 -1.852001,0.125 -4.091999,0.95901 -5.471,0.20901 -2.202999,-1.194 -4.383999,-3.13199 -5.613999,-5.29999 -5.314998,-9.38198 -10.399,-18.901 -15.324001,-28.49899 -2.559,-4.98498 -4.094,-10.54199 -6.973,-15.31201 -16.90100052,-28 -17.72499992,-57.82401 -7.9319997,-87.715 C 16.607,275.03806 25.389,254.79305 35.534,235.55405 c 9.375,-17.784 25.772999,-29.388 43.588002,-38.53501 0.872001,-0.446 1.891998,-0.692 2.870002,-0.813 0.749993,-0.092 1.544999,0.15295 4.601998,0.52995 z"
             style="fill:#ffffff;fill-opacity:1;fill-rule:evenodd;stroke:none"
             id="path1269"
             inkscape:connector-curvature="0" /><path
             d="m 218.952,299.63101 c 2.24,-8.62701 -1.81301,-15.97799 -5.319,-23.30099 -2.05901,-4.29599 -5.09101,-8.11301 -7.553,-12.23099 -1.58999,-2.659 -3.17599,-6.091 0.439,-7.72501 1.65199,-0.74699 5.642,0.82801 6.919,2.564 9.46601,12.83899 15.985,26.879 15.05901,43.358 -0.176,3.16501 -0.702,6.43601 -1.772,9.40302 -3.019,8.31799 -11.611,11.31201 -18.40201,5.74398 -5.019,-4.11099 -9.37,-9.36999 -12.93801,-14.824 -5.86,-8.94501 -10.06199,-18.76199 -10.619,-29.70001 -0.378,-7.443 2.19701,-11.57901 7.498,-12.612 5.209,-1.01502 9.634,1.79098 12.124,8.30899 2.71899,7.10501 4.888,14.42499 7.598,21.53399 1.37,3.59 3.41001,6.92002 5.146,10.366 0.60701,-0.29498 1.21101,-0.58899 1.82001,-0.88498 z m -3.525,12.88999 c 0.543,-0.538 1.088,-1.07599 1.63001,-1.61499 -0.817,-1.21201 -1.429,-2.663 -2.49401,-3.594 -8.22999,-7.17599 -12.861,-16.17599 -14.20199,-26.975 -0.245,-1.96701 -0.60401,-4.06202 -1.527,-5.76902 -1.12399,-2.07699 -2.89999,-3.80301 -4.39199,-5.67801 -0.63401,2.271 -2.105,4.68201 -1.75501,6.79099 1.832,11.05099 6.06,21.15799 13.828,29.42099 2.62699,2.79605 5.92299,4.96405 8.91199,7.41904 z"
             style="fill:#ffffff;fill-opacity:1;fill-rule:evenodd;stroke:none"
             id="path1271"
             inkscape:connector-curvature="0" /><path
             d="m 183.369,0 c 7.872,2.632 15.165,4.368 21.845,7.4330001 22.04401,10.1110009 43.94901,20.5440009 65.751,31.1700009 13.169,6.418998 24.28299,15.531002 33.11001,27.354 2.02899,2.720001 4.58301,5.042 6.81299,7.619003 2.48999,2.876999 5.31799,5.591003 7.172,8.848 1.173,2.059997 0.828,4.983001 1.16101,7.519996 -2.23001,-0.976997 -4.978,-1.429001 -6.60401,-3.024002 -5.85998,-5.762001 -11.66299,-11.645996 -16.90499,-17.969002 -8.50501,-10.257999 -18.758,-18.111999 -30.76902,-23.623001 -24.216,-11.111999 -48.50999,-22.047001 -72.828,-32.936 -3.084,-1.381001 -6.659,-1.699001 -9.7,-3.1590009 -1.80999,-0.8710003 -3.011,-3.0019999 -4.487,-4.5679999 C 179.713,3.1359999 181.49699,1.6040001 183.369,0 Z"
             style="fill:#ffffff;fill-opacity:1;fill-rule:evenodd;stroke:none"
             id="path1273"
             inkscape:connector-curvature="0" /><path
             d="m 135.702,340.73999 c 1.27999,1.85699 2.815,3.591 3.796,5.59799 3.709,7.57102 7.192,15.24799 10.843,22.853 17.98301,37.45401 66.32001,48.151 98.599,21.83899 1.23101,-1.004 2.47,-2.53 3.83901,-2.702 1.76199,-0.21701 4.08,0.21601 5.34099,1.31101 0.69601,0.60101 0.29299,3.61099 -0.61899,4.70001 -2.157,2.586 -4.63401,5.10901 -7.46601,6.89999 -22.806,14.42499 -46.41699,17.418 -71.565,5.76999 -24.86301,-11.513 -38.013,-31.81698 -44.893,-57.16501 -0.72701,-2.682 -0.099,-5.73199 -0.099,-8.61099 0.742,-0.16696 1.48401,-0.33096 2.224,-0.49298 z"
             style="fill:#ffffff;fill-opacity:1;fill-rule:evenodd;stroke:none"
             id="path1275"
             inkscape:connector-curvature="0" /><path
             d="m 233.17799,1.914 c 5.85601,2.639 12.172,4.6880002 17.59801,8.138 6.22699,3.956 11.81,8.987001 17.34799,13.917 1.46201,1.302 1.72199,3.954 2.53,5.986999 -2.358,0.002 -5.116,0.812001 -7.01001,-0.125999 C 251.96898,24.059 240.42297,18.013 229.00899,11.747999 226.87698,10.579 225.52998,7.9929991 223.81499,6.0619993 226.589,4.8330002 229.362,3.6059999 233.17799,1.914 Z"
             style="fill:#ffffff;fill-opacity:1;fill-rule:evenodd;stroke:none"
             id="path1277"
             inkscape:connector-curvature="0" /><path
             d="m 318.90399,433.09201 c -0.824,2.31201 -0.996,4.92401 -2.38901,6.345 -6.38501,6.538 -12.90799,12.982 -19.87899,18.871 -1.473,1.24201 -5.03699,0 -7.64099,-0.095 0.63699,-2.42099 0.50799,-5.59298 2.03601,-7.13501 7.03698,-7.11801 14.483,-13.84298 21.93399,-20.535 0.975,-0.87601 3,-1.297 4.23498,-0.927 0.84003,0.25601 1.15802,2.25601 1.70401,3.47601 z"
             style="fill:#ffffff;fill-opacity:1;fill-rule:evenodd;stroke:none"
             id="path1279"
             inkscape:connector-curvature="0" /><path
             d="m 35.355,323.01901 c 0.617,8.32599 1.236,16.65601 1.854,24.98502 -0.807999,0.39599 -1.617001,0.78699 -2.423001,1.18399 -1.715999,-2.202 -4.062,-4.15701 -5.027,-6.64801 -2.692999,-6.965 -1.027998,-14.86902 5.596001,-19.521 z"
             style="fill:#ffffff;fill-opacity:1;fill-rule:evenodd;stroke:none"
             id="path1281"
             inkscape:connector-curvature="0" /><path
             d="m 184.04201,354.92801 c 6.37399,2.61899 11.517,4.52701 16.43699,6.88599 1.30701,0.63 3.04,3.25299 2.678,3.90899 -0.81301,1.47901 -2.704,2.97101 -4.36701,3.267 -6.47599,1.15402 -12.76199,-4.315 -14.74798,-14.06198 z"
             style="fill:#ffffff;fill-opacity:1;fill-rule:evenodd;stroke:none"
             id="path1283"
             inkscape:connector-curvature="0" /><path
             d="m 149.325,337.78799 c -2.394,-4.18701 -4.786,-8.37399 -7.18,-12.557 0.69201,-0.40302 1.383,-0.806 2.073,-1.20902 2.469,4.15 4.93601,8.301 7.403,12.45099 -0.766,0.44003 -1.531,0.87503 -2.296,1.31503 z"
             style="fill:#ffffff;fill-opacity:1;fill-rule:evenodd;stroke:none"
             id="path1285"
             inkscape:connector-curvature="0" /><path
             d="m 215.427,312.521 c -2.989,-2.45401 -6.285,-4.62201 -8.912,-7.418 -7.769,-8.263 -11.996,-18.37 -13.828,-29.42099 -0.351,-2.10901 1.121,-4.51999 1.755,-6.79099 1.491,1.875 3.26801,3.60101 4.392,5.67801 0.924,1.70599 1.282,3.802 1.52699,5.76901 1.34101,10.79901 5.972,19.79901 14.202,26.97501 1.065,0.931 1.677,2.38199 2.494,3.59399 -0.54199,0.53696 -1.08699,1.07495 -1.62999,1.61396 z"
             style="fill:#ffffff;fill-opacity:1;fill-rule:evenodd;stroke:none"
             id="path1287"
             inkscape:connector-curvature="0" /></g></g></g><g
       id="g1289"><g
         id="g1291"
         clip-path="url(#clipPath1295)"><g
           id="g1297"
           transform="matrix(0.75,0,0,0.75,128.25,69)"><text
             transform="translate(6.828125,29)"
             style="font-variant:normal;font-weight:bold;font-size:28.17000008px;font-family:Arimo;-inkscape-font-specification:Arimo-Bold;writing-mode:lr-tb;fill:#607770;fill-opacity:1;fill-rule:nonzero;stroke:none"
             id="text1301"><tspan
               x="0"
               y="0"
               id="tspan1299">W</tspan></text>
<text
             transform="translate(33.390625,29)"
             style="font-variant:normal;font-weight:bold;font-size:28.17000008px;font-family:Arimo;-inkscape-font-specification:Arimo-Bold;writing-mode:lr-tb;fill:#607770;fill-opacity:1;fill-rule:nonzero;stroke:none"
             id="text1305"><tspan
               x="0"
               y="0"
               id="tspan1303">E</tspan></text>
<text
             transform="translate(52.15625,29)"
             style="font-variant:normal;font-weight:bold;font-size:28.17000008px;font-family:Arimo;-inkscape-font-specification:Arimo-Bold;writing-mode:lr-tb;fill:#607770;fill-opacity:1;fill-rule:nonzero;stroke:none"
             id="text1309"><tspan
               x="0"
               y="0"
               id="tspan1307">L</tspan></text>
<text
             transform="translate(69.34375,29)"
             style="font-variant:normal;font-weight:bold;font-size:28.17000008px;font-family:Arimo;-inkscape-font-specification:Arimo-Bold;writing-mode:lr-tb;fill:#607770;fill-opacity:1;fill-rule:nonzero;stroke:none"
             id="text1313"><tspan
               x="0"
               y="0"
               id="tspan1311">C</tspan></text>
<text
             transform="translate(89.671875,29)"
             style="font-variant:normal;font-weight:bold;font-size:28.17000008px;font-family:Arimo;-inkscape-font-specification:Arimo-Bold;writing-mode:lr-tb;fill:#607770;fill-opacity:1;fill-rule:nonzero;stroke:none"
             id="text1317"><tspan
               x="0"
               y="0"
               id="tspan1315">O</tspan></text>
<text
             transform="translate(111.5625,29)"
             style="font-variant:normal;font-weight:bold;font-size:28.17000008px;font-family:Arimo;-inkscape-font-specification:Arimo-Bold;writing-mode:lr-tb;fill:#607770;fill-opacity:1;fill-rule:nonzero;stroke:none"
             id="text1321"><tspan
               x="0"
               y="0"
               id="tspan1319">M</tspan></text>
<text
             transform="translate(135.01562,29)"
             style="font-variant:normal;font-weight:bold;font-size:28.17000008px;font-family:Arimo;-inkscape-font-specification:Arimo-Bold;writing-mode:lr-tb;fill:#607770;fill-opacity:1;fill-rule:nonzero;stroke:none"
             id="text1325"><tspan
               x="0"
               y="0"
               id="tspan1323">E</tspan></text>
<text
             transform="translate(153.78125,29)"
             style="font-variant:normal;font-weight:bold;font-size:28.17000008px;font-family:Arimo;-inkscape-font-specification:Arimo-Bold;writing-mode:lr-tb;fill:#607770;fill-opacity:1;fill-rule:nonzero;stroke:none"
             id="text1329"><tspan
               x="0"
               y="0"
               id="tspan1327">!</tspan></text>
</g><g
           id="g1331"
           transform="matrix(0.75,0,0,0.75,103.5,109.5)"><text
             transform="translate(6.71875,29)"
             style="font-variant:normal;font-weight:normal;font-size:28.17000008px;font-family:Arimo;-inkscape-font-specification:Arimo;writing-mode:lr-tb;fill:#607770;fill-opacity:1;fill-rule:nonzero;stroke:none"
             id="text1335"><tspan
               x="0"
               y="0"
               id="tspan1333">T</tspan></text>
<text
             transform="translate(23.90625,29)"
             style="font-variant:normal;font-weight:normal;font-size:28.17000008px;font-family:Arimo;-inkscape-font-specification:Arimo;writing-mode:lr-tb;fill:#607770;fill-opacity:1;fill-rule:nonzero;stroke:none"
             id="text1339"><tspan
               x="0"
               y="0"
               id="tspan1337">a</tspan></text>
<text
             transform="translate(39.5625,29)"
             style="font-variant:normal;font-weight:normal;font-size:28.17000008px;font-family:Arimo;-inkscape-font-specification:Arimo;writing-mode:lr-tb;fill:#607770;fill-opacity:1;fill-rule:nonzero;stroke:none"
             id="text1343"><tspan
               x="0"
               y="0"
               id="tspan1341">p</tspan></text>
<text
             transform="translate(63.03125,29)"
             style="font-variant:normal;font-weight:normal;font-size:28.17000008px;font-family:Arimo;-inkscape-font-specification:Arimo;writing-mode:lr-tb;fill:#607770;fill-opacity:1;fill-rule:nonzero;stroke:none"
             id="text1347"><tspan
               x="0"
               y="0"
               id="tspan1345">t</tspan></text>
<text
             transform="translate(70.84375,29)"
             style="font-variant:normal;font-weight:normal;font-size:28.17000008px;font-family:Arimo;-inkscape-font-specification:Arimo;writing-mode:lr-tb;fill:#607770;fill-opacity:1;fill-rule:nonzero;stroke:none"
             id="text1351"><tspan
               x="0"
               y="0"
               id="tspan1349">o</tspan></text>
<text
             transform="translate(94.3125,29)"
             style="font-variant:normal;font-weight:normal;font-size:28.17000008px;font-family:Arimo;-inkscape-font-specification:Arimo;writing-mode:lr-tb;fill:#607770;fill-opacity:1;fill-rule:nonzero;stroke:none"
             id="text1355"><tspan
               x="0"
               y="0"
               id="tspan1353">g</tspan></text>
<text
             transform="translate(109.96875,29)"
             style="font-variant:normal;font-weight:normal;font-size:28.17000008px;font-family:Arimo;-inkscape-font-specification:Arimo;writing-mode:lr-tb;fill:#607770;fill-opacity:1;fill-rule:nonzero;stroke:none"
             id="text1359"><tspan
               x="0"
               y="0"
               id="tspan1357">e</tspan></text>
<text
             transform="translate(125.625,29)"
             style="font-variant:normal;font-weight:normal;font-size:28.17000008px;font-family:Arimo;-inkscape-font-specification:Arimo;writing-mode:lr-tb;fill:#607770;fill-opacity:1;fill-rule:nonzero;stroke:none"
             id="text1363"><tspan
               x="0"
               y="0"
               id="tspan1361">t</tspan></text>
<text
             transform="translate(141.25,29)"
             style="font-variant:normal;font-weight:normal;font-size:28.17000008px;font-family:Arimo;-inkscape-font-specification:Arimo;writing-mode:lr-tb;fill:#607770;fill-opacity:1;fill-rule:nonzero;stroke:none"
             id="text1367"><tspan
               x="0"
               y="0"
               id="tspan1365">s</tspan></text>
<text
             transform="translate(155.32813,29)"
             style="font-variant:normal;font-weight:normal;font-size:28.17000008px;font-family:Arimo;-inkscape-font-specification:Arimo;writing-mode:lr-tb;fill:#607770;fill-opacity:1;fill-rule:nonzero;stroke:none"
             id="text1371"><tspan
               x="0"
               y="0"
               id="tspan1369">t</tspan></text>
<text
             transform="translate(163.14062,29)"
             style="font-variant:normal;font-weight:normal;font-size:28.17000008px;font-family:Arimo;-inkscape-font-specification:Arimo;writing-mode:lr-tb;fill:#607770;fill-opacity:1;fill-rule:nonzero;stroke:none"
             id="text1375"><tspan
               x="0"
               y="0"
               id="tspan1373">a</tspan></text>
<text
             transform="translate(178.79688,29)"
             style="font-variant:normal;font-weight:normal;font-size:28.17000008px;font-family:Arimo;-inkscape-font-specification:Arimo;writing-mode:lr-tb;fill:#607770;fill-opacity:1;fill-rule:nonzero;stroke:none"
             id="text1379"><tspan
               x="0"
               y="0"
               id="tspan1377">r</tspan></text>
<text
             transform="translate(188.17188,29)"
             style="font-variant:normal;font-weight:normal;font-size:28.17000008px;font-family:Arimo;-inkscape-font-specification:Arimo;writing-mode:lr-tb;fill:#607770;fill-opacity:1;fill-rule:nonzero;stroke:none"
             id="text1383"><tspan
               x="0"
               y="0"
               id="tspan1381">t</tspan></text>
<text
             transform="translate(195.98438,29)"
             style="font-variant:normal;font-weight:normal;font-size:28.17000008px;font-family:Arimo;-inkscape-font-specification:Arimo;writing-mode:lr-tb;fill:#607770;fill-opacity:1;fill-rule:nonzero;stroke:none"
             id="text1387"><tspan
               x="0"
               y="0"
               id="tspan1385">e</tspan></text>
<text
             transform="translate(211.64063,29)"
             style="font-variant:normal;font-weight:normal;font-size:28.17000008px;font-family:Arimo;-inkscape-font-specification:Arimo;writing-mode:lr-tb;fill:#607770;fill-opacity:1;fill-rule:nonzero;stroke:none"
             id="text1391"><tspan
               x="0"
               y="0"
               id="tspan1389">d</tspan></text>
<text
             transform="translate(18.46875,68)"
             style="font-variant:normal;font-weight:normal;font-size:28.17000008px;font-family:Arimo;-inkscape-font-specification:Arimo;writing-mode:lr-tb;fill:#607770;fill-opacity:1;fill-rule:nonzero;stroke:none"
             id="text1395"><tspan
               x="0"
               y="0"
               id="tspan1393">w</tspan></text>
<text
             transform="translate(38.796875,68)"
             style="font-variant:normal;font-weight:normal;font-size:28.17000008px;font-family:Arimo;-inkscape-font-specification:Arimo;writing-mode:lr-tb;fill:#607770;fill-opacity:1;fill-rule:nonzero;stroke:none"
             id="text1399"><tspan
               x="0"
               y="0"
               id="tspan1397">i</tspan></text>
<text
             transform="translate(45.046875,68)"
             style="font-variant:normal;font-weight:normal;font-size:28.17000008px;font-family:Arimo;-inkscape-font-specification:Arimo;writing-mode:lr-tb;fill:#607770;fill-opacity:1;fill-rule:nonzero;stroke:none"
             id="text1403"><tspan
               x="0"
               y="0"
               id="tspan1401">t</tspan></text>
<text
             transform="translate(52.859375,68)"
             style="font-variant:normal;font-weight:normal;font-size:28.17000008px;font-family:Arimo;-inkscape-font-specification:Arimo;writing-mode:lr-tb;fill:#607770;fill-opacity:1;fill-rule:nonzero;stroke:none"
             id="text1407"><tspan
               x="0"
               y="0"
               id="tspan1405">h</tspan></text>
<text
             transform="translate(76.328125,68)"
             style="font-variant:normal;font-weight:normal;font-size:28.17000008px;font-family:Arimo;-inkscape-font-specification:Arimo;writing-mode:lr-tb;fill:#607770;fill-opacity:1;fill-rule:nonzero;stroke:none"
             id="text1411"><tspan
               x="0"
               y="0"
               id="tspan1409">t</tspan></text>
<text
             transform="translate(84.140625,68)"
             style="font-variant:normal;font-weight:normal;font-size:28.17000008px;font-family:Arimo;-inkscape-font-specification:Arimo;writing-mode:lr-tb;fill:#607770;fill-opacity:1;fill-rule:nonzero;stroke:none"
             id="text1415"><tspan
               x="0"
               y="0"
               id="tspan1413">h</tspan></text>
<text
             transform="translate(99.796875,68)"
             style="font-variant:normal;font-weight:normal;font-size:28.17000008px;font-family:Arimo;-inkscape-font-specification:Arimo;writing-mode:lr-tb;fill:#607770;fill-opacity:1;fill-rule:nonzero;stroke:none"
             id="text1419"><tspan
               x="0"
               y="0"
               id="tspan1417">e</tspan></text>
<text
             transform="translate(123.26563,68)"
             style="font-variant:normal;font-weight:normal;font-size:28.17000008px;font-family:Arimo;-inkscape-font-specification:Arimo;writing-mode:lr-tb;fill:#607770;fill-opacity:1;fill-rule:nonzero;stroke:none"
             id="text1423"><tspan
               x="0"
               y="0"
               id="tspan1421">t</tspan></text>
<text
             transform="translate(131.07812,68)"
             style="font-variant:normal;font-weight:normal;font-size:28.17000008px;font-family:Arimo;-inkscape-font-specification:Arimo;writing-mode:lr-tb;fill:#607770;fill-opacity:1;fill-rule:nonzero;stroke:none"
             id="text1427"><tspan
               x="0"
               y="0"
               id="tspan1425">u</tspan></text>
<text
             transform="translate(146.73437,68)"
             style="font-variant:normal;font-weight:normal;font-size:28.17000008px;font-family:Arimo;-inkscape-font-specification:Arimo;writing-mode:lr-tb;fill:#607770;fill-opacity:1;fill-rule:nonzero;stroke:none"
             id="text1431"><tspan
               x="0"
               y="0"
               id="tspan1429">t</tspan></text>
<text
             transform="translate(154.54687,68)"
             style="font-variant:normal;font-weight:normal;font-size:28.17000008px;font-family:Arimo;-inkscape-font-specification:Arimo;writing-mode:lr-tb;fill:#607770;fill-opacity:1;fill-rule:nonzero;stroke:none"
             id="text1435"><tspan
               x="0"
               y="0"
               id="tspan1433">o</tspan></text>
<text
             transform="translate(170.20313,68)"
             style="font-variant:normal;font-weight:normal;font-size:28.17000008px;font-family:Arimo;-inkscape-font-specification:Arimo;writing-mode:lr-tb;fill:#607770;fill-opacity:1;fill-rule:nonzero;stroke:none"
             id="text1439"><tspan
               x="0"
               y="0"
               id="tspan1437">r</tspan></text>
<text
             transform="translate(179.57813,68)"
             style="font-variant:normal;font-weight:normal;font-size:28.17000008px;font-family:Arimo;-inkscape-font-specification:Arimo;writing-mode:lr-tb;fill:#607770;fill-opacity:1;fill-rule:nonzero;stroke:none"
             id="text1443"><tspan
               x="0"
               y="0"
               id="tspan1441">i</tspan></text>
<text
             transform="translate(185.82813,68)"
             style="font-variant:normal;font-weight:normal;font-size:28.17000008px;font-family:Arimo;-inkscape-font-specification:Arimo;writing-mode:lr-tb;fill:#607770;fill-opacity:1;fill-rule:nonzero;stroke:none"
             id="text1447"><tspan
               x="0"
               y="0"
               id="tspan1445">a</tspan></text>
<text
             transform="translate(201.48438,68)"
             style="font-variant:normal;font-weight:normal;font-size:28.17000008px;font-family:Arimo;-inkscape-font-specification:Arimo;writing-mode:lr-tb;fill:#607770;fill-opacity:1;fill-rule:nonzero;stroke:none"
             id="text1451"><tspan
               x="0"
               y="0"
               id="tspan1449">l</tspan></text>
<text
             transform="translate(207.73438,68)"
             style="font-variant:normal;font-weight:normal;font-size:28.17000008px;font-family:Arimo;-inkscape-font-specification:Arimo;writing-mode:lr-tb;fill:#607770;fill-opacity:1;fill-rule:nonzero;stroke:none"
             id="text1455"><tspan
               x="0"
               y="0"
               id="tspan1453">!</tspan></text>
</g></g></g></g></svg>