<?xml version="1.0" encoding="UTF-8" standalone="no"?>
<svg
   xmlns:dc="http://purl.org/dc/elements/1.1/"
   xmlns:cc="http://creativecommons.org/ns#"
   xmlns:rdf="http://www.w3.org/1999/02/22-rdf-syntax-ns#"
   xmlns:svg="http://www.w3.org/2000/svg"
   xmlns="http://www.w3.org/2000/svg"
   xmlns:xlink="http://www.w3.org/1999/xlink"
   xmlns:sodipodi="http://sodipodi.sourceforge.net/DTD/sodipodi-0.dtd"
   xmlns:inkscape="http://www.inkscape.org/namespaces/inkscape"
   id="Layer_1"
   data-name="Layer 1"
   viewBox="0 0 108.00001 108.00001"
   version="1.1"
   sodipodi:docname="icon.svg.svg"
   inkscape:version="0.92.3 (2405546, 2018-03-11)"
   width="108"
   height="108"
   inkscape:export-filename="C:\Users\Daphne\OneDrive\UBC Year 3\Work Learn\topARgraphy\Assets\Logos\background.png"
   inkscape:export-xdpi="384"
   inkscape:export-ydpi="384">
  <metadata
     id="metadata47">
    <rdf:RDF>
      <cc:Work
         rdf:about="">
        <dc:format>image/svg+xml</dc:format>
        <dc:type
           rdf:resource="http://purl.org/dc/dcmitype/StillImage" />
        <dc:title>192dpi</dc:title>
      </cc:Work>
    </rdf:RDF>
  </metadata>
  <sodipodi:namedview
     pagecolor="#ffffff"
     bordercolor="#666666"
     borderopacity="1"
     objecttolerance="10"
     gridtolerance="10"
     guidetolerance="10"
     inkscape:pageopacity="0"
     inkscape:pageshadow="2"
     inkscape:window-width="1920"
     inkscape:window-height="986"
     id="namedview45"
     showgrid="false"
     inkscape:zoom="4.4587011"
     inkscape:cx="10.37743"
     inkscape:cy="50.488903"
     inkscape:window-x="-11"
     inkscape:window-y="-11"
     inkscape:window-maximized="1"
     inkscape:current-layer="Layer_1" />
  <defs
     id="defs22">
    <style
       id="style2">.cls-1,.cls-5,.cls-6{fill:#4db6ac;}.cls-1,.cls-2,.cls-7{stroke:#4db6ac;}.cls-1,.cls-2,.cls-3,.cls-4,.cls-5,.cls-6,.cls-7{stroke-miterlimit:10;}.cls-2,.cls-3,.cls-4{fill:#fff;}.cls-3{stroke:url(#radial-gradient);}.cls-4{stroke:url(#radial-gradient-2);}.cls-5{stroke:url(#New_Gradient_Swatch_1);}.cls-6{stroke:url(#New_Gradient_Swatch_1-2);}.cls-7{fill:none;stroke-width:2px;}</style>
    <radialGradient
       id="radial-gradient"
       cx="138.2"
       cy="294.45999"
       r="39.970001"
       gradientTransform="matrix(0.49,0,0,0.51,-30.96,-110.15)"
       gradientUnits="userSpaceOnUse">
      <stop
         offset="0"
         stop-color="#fff"
         stop-opacity="0.1"
         id="stop4" />
      <stop
         offset="0.14"
         stop-color="#fff"
         stop-opacity="0.1"
         id="stop6" />
      <stop
         offset="1"
         stop-color="#fff"
         stop-opacity="0"
         id="stop8" />
    </radialGradient>
    <radialGradient
       id="radial-gradient-2"
       cx="183.84"
       cy="288.38"
       r="40.98"
       gradientTransform="matrix(0.5,0,0,0.5,-33.43,-104.44)"
       xlink:href="#radial-gradient" />
    <linearGradient
       id="New_Gradient_Swatch_1"
       x1="52.880001"
       y1="43.5"
       x2="59.259998"
       y2="43.5"
       gradientUnits="userSpaceOnUse">
      <stop
         offset="0"
         stop-color="#fff"
         stop-opacity="0.1"
         id="stop12" />
      <stop
         offset="0.14"
         stop-color="#fff"
         stop-opacity="0.1"
         id="stop14" />
      <stop
         offset="0.64"
         stop-color="#fff"
         stop-opacity="0.1"
         id="stop16" />
      <stop
         offset="1"
         stop-color="#fff"
         stop-opacity="0"
         id="stop18" />
    </linearGradient>
    <linearGradient
       id="New_Gradient_Swatch_1-2"
       x1="52.869999"
       y1="50.48"
       x2="54.540001"
       y2="50.48"
       xlink:href="#New_Gradient_Swatch_1" />
  </defs>
  <title
     id="title24">192dpi</title>
  <rect
     class="cls-1"
     x="0"
     y="-1.9073486e-006"
     width="108"
     height="108"
     id="rect26"
     inkscape:export-xdpi="96"
     inkscape:export-ydpi="96"
     style="fill:#4db6ac;fill-opacity:1;stroke:none;stroke-width:1.42876053;stroke-miterlimit:10" />
  <path
     style="fill:#ffffff;fill-opacity:1;stroke:none;stroke-width:0.84676081"
     d="m 44.180934,31.096314 -7.006215,4.924647 c 0.839156,1.788608 1.959138,3.343769 3.49906,4.397369 1.429487,0.978668 2.55841,2.144784 3.51039,3.336053 z m 34.736522,0 -16.381825,10.625004 v 1.698445 c 0.02574,-0.0159 0.05024,-0.03502 0.07607,-0.05069 1.429611,-0.868363 3.038266,-1.402093 4.798666,-1.137367 l 0.01295,0.0017 0.01457,0.0034 c 1.122564,0.209282 2.149296,0.793111 2.93099,1.659576 2.5466,2.609399 3.19402,6.026213 3.69813,9.022888 0.505134,3.002759 0.916742,5.526747 2.466498,6.847863 l 0.0016,0.0017 0.0016,0.0017 c 0.487106,0.419408 1.237365,0.869231 2.447077,1.079908 z m -33.254033,0.0085 0.07607,14.804365 c 0.342804,0.513601 0.673855,1.02102 0.984009,1.492266 0.719329,1.092948 1.382279,2.033781 2.053797,2.668503 0.671601,0.634833 1.306405,0.971032 2.147667,1.005548 2.763886,0.112591 5.157057,-2.09069 7.69567,-4.45652 0.602089,-0.56111 1.210703,-1.123259 1.835306,-1.654505 V 41.721339 Z M 35.7861,36.99611 29.199059,41.626699 c 0.04602,6.703467 -0.149141,12.409822 -0.18612,19.041183 0.359887,-0.1784 0.688107,-0.362192 0.972682,-0.545868 1.312601,-0.847214 1.80132,-1.593666 1.80132,-1.593666 0.08609,-0.15022 0.178329,-0.298251 0.424031,-0.686139 0.267424,-0.422178 0.640201,-0.999304 1.08759,-1.656196 0.894776,-1.31378 2.080672,-2.945817 3.314559,-4.309489 1.233887,-1.363672 2.428526,-2.539657 3.855118,-2.717513 0.713297,-0.08893 1.522376,0.253971 1.984204,0.931188 0.461827,0.677217 0.682321,1.580929 0.780087,2.808773 h 0.0016 v 0.0017 c 0.120508,1.55616 0.333282,2.566357 0.639283,3.248171 0.09412,0.209732 0.200067,0.38657 0.313978,0.552629 l -0.0032,-10.09092 c -1.164,-1.711325 -2.505883,-3.436209 -4.418294,-4.745498 -1.788082,-1.223394 -3.050154,-2.950091 -3.979736,-4.868879 z m 30.886258,6.905323 c -1.120984,-0.04834 -2.158388,0.314111 -3.227164,0.963299 -0.302792,0.183918 -0.605919,0.391821 -0.909563,0.616848 v 27.017963 c 0.151517,0.351885 0.250859,0.605019 0.250859,0.605019 l -0.250859,0.09126 v 3.707848 l 16.464364,-9.180072 -0.01133,-5.142657 c -1.626019,-0.241291 -2.76132,-0.835036 -3.503917,-1.473676 -2.195696,-1.871761 -2.551161,-4.91908 -3.050754,-7.888902 -0.499593,-2.969821 -1.096386,-5.917918 -3.235257,-8.100149 l -0.01294,-0.01353 -0.01295,-0.01521 c -0.535949,-0.598273 -1.243372,-0.995546 -2.014955,-1.142436 -0.163904,-0.02407 -0.32539,-0.03873 -0.48553,-0.04562 z m -6.216418,3.351263 c -0.244307,0.223244 -0.484837,0.427503 -0.731533,0.657408 -2.528521,2.356425 -5.255827,5.041219 -8.864182,4.894228 -1.267628,-0.05201 -2.332443,-0.635036 -3.196414,-1.451706 -0.708111,-0.669343 -1.309663,-1.507623 -1.908137,-2.394725 l 0.04694,9.066828 c 1.41286,0.780872 3.699321,1.677475 7.01107,3.717991 3.673758,2.263564 6.098548,4.937731 7.642262,7.126713 z m -19.79187,3.62504 c -0.484201,0.06037 -1.703557,0.925017 -2.846831,2.188546 -1.143274,1.263527 -2.29835,2.846066 -3.167283,4.1219 -0.434466,0.637916 -0.798237,1.200625 -1.05684,1.608876 -0.258598,0.40825 -0.469704,0.766209 -0.414319,0.667547 l -0.01779,0.03043 -0.01942,0.03043 c 0,0 -0.739028,1.070563 -2.285235,2.068555 -0.517815,0.334222 -1.14052,0.664132 -1.856347,0.961608 v 1.515921 c 0,3.98893 0.173756,8.869166 0.148896,12.832137 5.187286,-3.928361 9.852852,-8.090889 15.040139,-12.01925 l -0.0016,-5.857526 c -0.767081,-0.541287 -1.399294,-1.218351 -1.814246,-2.142919 -0.440882,-0.98235 -0.663306,-2.1901 -0.791414,-3.84305 -0.08449,-1.060771 -0.306168,-1.690978 -0.480678,-1.946875 -0.174508,-0.255898 -0.194877,-0.246501 -0.436977,-0.216321 z m 26.073025,5.769646 h 0.545414 3.911764 v 3.158603 h -3.911765 v 12.009111 l -0.521137,-0.09464 -0.01942,-11.914472 h -0.0048 z m -20.924776,3.329293 0.0259,4.907747 14.617727,12.01925 v -4.887484 c -1.100287,-2.082707 -3.562727,-5.750782 -8.483855,-8.782906 -2.708006,-1.668523 -4.65254,-2.493252 -6.159772,-3.256621 z"
     id="path28"
     inkscape:connector-curvature="0" />
  <path
     class="cls-2"
     d="M 31.064631,76.766162"
     id="path38"
     inkscape:connector-curvature="0"
     style="fill:#ffffff;stroke:#4db6ac;stroke-width:1.41010582;stroke-miterlimit:10" />
</svg>
