<svg id="Layer_1" data-name="Layer 1" xmlns="http://www.w3.org/2000/svg" xmlns:xlink="http://www.w3.org/1999/xlink" viewBox="0 0 76.59 76.59"><defs><style>.cls-1,.cls-5,.cls-6{fill:#4db6ac;}.cls-1,.cls-2,.cls-7{stroke:#4db6ac;}.cls-1,.cls-2,.cls-3,.cls-4,.cls-5,.cls-6,.cls-7{stroke-miterlimit:10;}.cls-2,.cls-3,.cls-4{fill:#fff;}.cls-3{stroke:url(#radial-gradient);}.cls-4{stroke:url(#radial-gradient-2);}.cls-5{stroke:url(#New_Gradient_Swatch_1);}.cls-6{stroke:url(#New_Gradient_Swatch_1-2);}.cls-7{fill:none;stroke-width:2px;}</style><radialGradient id="radial-gradient" cx="138.2" cy="294.46" r="39.97" gradientTransform="translate(-30.96 -110.15) scale(0.49 0.51)" gradientUnits="userSpaceOnUse"><stop offset="0" stop-color="#fff" stop-opacity="0.1"/><stop offset="0.14" stop-color="#fff" stop-opacity="0.1"/><stop offset="1" stop-color="#fff" stop-opacity="0"/></radialGradient><radialGradient id="radial-gradient-2" cx="183.84" cy="288.38" r="40.98" gradientTransform="translate(-33.43 -104.44) scale(0.5 0.5)" xlink:href="#radial-gradient"/><linearGradient id="New_Gradient_Swatch_1" x1="52.88" y1="43.5" x2="59.26" y2="43.5" gradientUnits="userSpaceOnUse"><stop offset="0" stop-color="#fff" stop-opacity="0.1"/><stop offset="0.14" stop-color="#fff" stop-opacity="0.1"/><stop offset="0.64" stop-color="#fff" stop-opacity="0.1"/><stop offset="1" stop-color="#fff" stop-opacity="0"/></linearGradient><linearGradient id="New_Gradient_Swatch_1-2" x1="52.87" y1="50.48" x2="54.54" y2="50.48" xlink:href="#New_Gradient_Swatch_1"/></defs><title>192dpi</title><rect class="cls-1" x="0.5" y="0.5" width="75.59" height="75.59" rx="12" ry="12"/><path class="cls-2" d="M375.86,503.47l-18.08,12.17c.06,8.37-.23,15.34-.24,23.83q0,1.05,0,2.11c0,4.61.21,10.25.18,14.83,6.26-4.54,11.89-9.35,18.15-13.89Z" transform="translate(-349.7 -491.33)"/><polygon class="cls-3" points="45.8 65.08 28.16 51.19 27.95 12.15 45.8 24.42 45.8 65.08"/><polygon class="cls-4" points="68.18 54.47 48.31 65.08 48.31 24.42 68.08 12.14 68.18 54.47"/><rect class="cls-5" x="53.38" y="41.67" width="5.38" height="3.65"/><polygon class="cls-6" points="54.04 59.2 53.41 59.09 53.38 41.67 54.04 41.67 54.04 59.2"/><path class="cls-2" d="M371.73,545.77" transform="translate(-349.7 -491.33)"/><path class="cls-7" d="M363,494c.87,5,1.09,16.5,8.08,21.08,6.65,4.36,7.79,12.28,12.88,12.48,7.69.3,12.36-11.3,19.79-10.23a5.41,5.41,0,0,1,3,1.63c5.67,5.54,3,14.73,7.52,18.42,1.14.94,3.2,1.88,6.91,1.55" transform="translate(-349.7 -491.33)"/><path class="cls-7" d="M350.88,540.08c7.88-.13,10.84-4.33,10.84-4.33.17-.29,11.12-17.58,12-7,.6,7.42,3,5.66,12.05,11s11.6,12.6,11.6,12.6" transform="translate(-349.7 -491.33)"/></svg>