<svg id="Layer_1" data-name="Layer 1" xmlns="http://www.w3.org/2000/svg" viewBox="0 0 750 1334"><defs><style>.cls-1{fill:none;}.cls-1,.cls-2,.cls-3{stroke:#fff;stroke-miterlimit:10;}.cls-2,.cls-5{fill:#26a69a;}.cls-3{fill:#f2f2f2;}.cls-4{fill:#fff;}.cls-5{font-size:53.3px;font-family:AvenirNext-Regular, Avenir Next;}.cls-6{letter-spacing:-0.02em;}.cls-7{letter-spacing:-0.03em;}.cls-8{font-family:AvenirNext-Bold, Avenir Next;font-weight:700;}</style></defs><title>Artboard 1</title><path class="cls-1" d="M265.36,486.19V630.37"/><path class="cls-1" d="M285,642.25l-.71-129.93"/><path class="cls-2" d="M217.58,440.9c-20-12.89-34.48-31.33-45.12-52.23L85.16,446.24c.62,79.45-2.1,146-2.39,225.83,29.48-12.43,41.61-29.34,41.61-29.34,1.73-2.81,110.86-171.7,119.4-68.69,2.58,31.09,8.53,45.67,21.58,56.33V486.19C252.73,469.95,237.68,453.82,217.58,440.9Z"/><path class="cls-2" d="M243.78,574c-8.54-103-117.67,65.88-119.4,68.69,0,0-12.13,16.91-41.61,29.34q0,3.44,0,6.92,0,10.3,0,20.58c-.12,45.06,2.1,100.11,1.75,144.82C146.87,800,202.95,753.1,265.36,708.73V630.37C252.31,619.7,246.36,605.13,243.78,574Z"/><path class="cls-2" d="M217.58,440.9c20.1,12.93,35.15,29.05,47.78,45.3V327.4l-92.9,61.26C183.1,409.57,197.55,428,217.58,440.9Z"/><path class="cls-2" d="M283.25,327.48l1,184.84c18.89,27.11,34.74,49.46,61.72,50.5,44.9,1.74,79.46-36.39,115.26-66.2V447.34Z"/><path class="cls-2" d="M346,562.82c-27-1-42.83-23.39-61.72-50.5L285,642.25c18,8.85,43.29,18.72,79,39.59,50.22,29.38,80.43,64.35,97.31,89.48V496.62C425.44,526.43,390.87,564.56,346,562.82Z"/><path class="cls-2" d="M363.92,681.84c-35.67-20.87-61-30.74-79-39.59l.36,66.48L461.24,844.39V771.32C444.35,746.19,414.14,711.22,363.92,681.84Z"/><path class="cls-2" d="M618.94,596.74H599.32V732.16l-6.26-1.06-.25-134.36h-.07V561.05h19.57c-5.91-29.27-14.9-59-39.14-82.22-10-9.58-20-14.49-29.91-15.9C522.5,460,503.9,466.78,486.19,478V844.39L684.3,740.75l-.16-67.53c-17.23-2.55-28.53-8.54-36-14.52C630.54,644.56,623.92,622.09,618.94,596.74Z"/><path class="cls-2" d="M486.19,447.34V478c17.71-11.23,36.31-18,57.07-15.08,9.94,1.41,19.9,6.33,29.91,15.9,24.24,23.19,33.23,52.95,39.14,82.22h34.08v35.69H618.94c5,25.34,11.6,47.81,29.22,62,7.45,6,18.75,12,36,14.52l-.83-345.82Z"/><polygon class="cls-3" points="592.75 596.74 592.81 596.74 592.75 561.05 592.75 596.74"/><path class="cls-4" d="M599.32,596.74h19.62c-2.25-11.48-4.18-23.54-6.63-35.69h-13Z"/><path class="cls-4" d="M646.39,596.74V561.05H612.32c2.45,12.15,4.37,24.22,6.63,35.69Z"/><polygon class="cls-4" points="593.07 727.1 599.33 728.16 599.33 592.74 592.81 592.74 593.07 727.1"/><polygon class="cls-4" points="592.75 561.05 592.81 596.74 599.33 596.74 599.33 561.05 592.75 561.05"/><text class="cls-5" transform="translate(124.73 947.1) scale(1.01 1)">SOI<tspan class="cls-6" x="89.22" y="0">L </tspan><tspan class="cls-7" x="127.17" y="0">T</tspan><tspan x="155.95" y="0">OP</tspan><tspan class="cls-8" x="232.17" y="0">AR</tspan><tspan x="306.36" y="0">GRAPH</tspan><tspan class="cls-6" x="486.3" y="0">Y</tspan></text></svg>